<svg width="343" height="30" viewBox="0 0 343 30" fill="none" xmlns="http://www.w3.org/2000/svg">
<g clip-path="url(#clip0_720_25)">
<path d="M18.1596 1.00001H25.9996C26.2929 1.00001 26.5463 1.10667 26.7596 1.32001C26.9729 1.53334 27.0796 1.78668 27.0796 2.08001V27.92C27.0796 28.2133 26.9729 28.4667 26.7596 28.68C26.5463 28.8933 26.2929 29 25.9996 29H18.1596C17.8663 29 17.6129 28.8933 17.3996 28.68C17.1863 28.4667 17.0796 28.2133 17.0796 27.92V19.28H10.5996V27.92C10.5996 28.2133 10.4929 28.4667 10.2796 28.68C10.0663 28.8933 9.81294 29 9.51961 29H1.67961C1.38628 29 1.13294 28.9067 0.919609 28.72C0.706276 28.5067 0.599609 28.24 0.599609 27.92V2.08001C0.599609 1.78668 0.706276 1.53334 0.919609 1.32001C1.13294 1.10667 1.38628 1.00001 1.67961 1.00001H9.51961C9.81294 1.00001 10.0663 1.10667 10.2796 1.32001C10.4929 1.53334 10.5996 1.78668 10.5996 2.08001V10.48H17.0796V2.08001C17.0796 1.78668 17.1863 1.53334 17.3996 1.32001C17.6129 1.10667 17.8663 1.00001 18.1596 1.00001ZM52.7993 20.96H40.8793V21.16C40.8793 22.7867 41.3993 23.6 42.4393 23.6C42.7326 23.6 43.0926 23.3867 43.5193 22.96C43.946 22.5333 44.4126 22.32 44.9193 22.32H52.4793C53.066 22.32 53.3593 22.6133 53.3593 23.2C53.3593 24.5067 52.3726 25.8667 50.3993 27.28C48.4526 28.6933 45.7993 29.4 42.4393 29.4C39.106 29.4 36.3726 28.5333 34.2393 26.8C32.1326 25.04 31.0793 22.6267 31.0793 19.56V17.64C31.0793 14.7333 32.1593 12.3733 34.3193 10.56C36.4793 8.72001 39.306 7.80001 42.7993 7.80001C46.3193 7.80001 49.0393 8.82668 50.9593 10.88C52.906 12.9333 53.8793 15.5333 53.8793 18.68V19.88C53.8793 20.1733 53.7726 20.4267 53.5593 20.64C53.346 20.8533 53.0926 20.96 52.7993 20.96ZM44.0793 15.8C44.0793 14.2 43.546 13.4 42.4793 13.4C41.4126 13.4 40.8793 14.2 40.8793 15.8V15.96H44.0793V15.8ZM56.6652 23.04C56.6652 19.44 59.5852 17.1333 65.4252 16.12L69.6652 15.44C69.6652 14.64 69.5986 14.1067 69.4652 13.84C69.3319 13.5467 69.0119 13.4 68.5052 13.4C68.0252 13.4 67.5452 13.6133 67.0652 14.04C66.5852 14.4667 66.1319 14.68 65.7052 14.68H58.9052C58.3186 14.68 58.0252 14.4 58.0252 13.84C58.0252 13.2533 58.2252 12.64 58.6252 12C59.0519 11.3333 59.6519 10.68 60.4252 10.04C61.2252 9.40001 62.3319 8.86668 63.7452 8.44001C65.1852 8.01334 66.7852 7.80001 68.5452 7.80001C72.1186 7.80001 74.7986 8.54668 76.5852 10.04C78.3719 11.5333 79.2652 13.6667 79.2652 16.44V27.92C79.2652 28.2133 79.1586 28.4667 78.9452 28.68C78.7319 28.8933 78.4786 29 78.1852 29H71.1852C70.8919 29 70.6386 28.8933 70.4252 28.68C70.2119 28.4667 70.1052 28.2133 70.1052 27.92V26.8C68.8519 28.5333 67.0252 29.4 64.6252 29.4C62.2252 29.4 60.2919 28.8 58.8252 27.6C57.3852 26.3733 56.6652 24.8533 56.6652 23.04ZM67.1852 23.48C68.9186 23.48 69.7852 22.44 69.7852 20.36L67.4252 20.88C66.2519 21.1467 65.6652 21.64 65.6652 22.36C65.6652 22.68 65.7986 22.9467 66.0652 23.16C66.3319 23.3733 66.7052 23.48 67.1852 23.48ZM91.8065 9.28001V10.68C93.6731 9.02668 95.7531 8.20001 98.0465 8.20001H99.9665C100.26 8.20001 100.514 8.30668 100.727 8.52001C100.94 8.73334 101.047 8.98668 101.047 9.28001V15.52C101.047 15.8133 100.94 16.0667 100.727 16.28C100.514 16.4933 100.26 16.6 99.9665 16.6H94.8065C94.0865 16.6 93.5131 16.7733 93.0865 17.12C92.6865 17.44 92.4598 17.88 92.4065 18.44V27.92C92.4065 28.2133 92.2998 28.4667 92.0865 28.68C91.8731 28.8933 91.6198 29 91.3265 29H83.7265C83.4331 29 83.1798 28.8933 82.9665 28.68C82.7531 28.4667 82.6465 28.2133 82.6465 27.92V9.28001C82.6465 8.98668 82.7531 8.73334 82.9665 8.52001C83.1798 8.30668 83.4331 8.20001 83.7265 8.20001H90.7265C91.0198 8.20001 91.2731 8.30668 91.4865 8.52001C91.6998 8.73334 91.8065 8.98668 91.8065 9.28001ZM116.258 15.2V19.6C116.258 20.9333 116.831 21.6 117.978 21.6H121.618C121.911 21.6 122.164 21.7067 122.378 21.92C122.591 22.1333 122.698 22.3867 122.698 22.68V27.92C122.698 28.2133 122.591 28.4667 122.378 28.68C122.164 28.8933 121.911 29 121.618 29H117.098C110.431 29 107.098 26.1333 107.098 20.4V15.2H103.938C103.644 15.2 103.391 15.0933 103.178 14.88C102.964 14.6667 102.858 14.4133 102.858 14.12V9.28001C102.858 8.98668 102.964 8.73334 103.178 8.52001C103.391 8.30668 103.644 8.20001 103.938 8.20001H107.098V1.68001C107.098 1.38668 107.204 1.13334 107.418 0.920007C107.631 0.706673 107.884 0.600006 108.178 0.600006H115.178C115.471 0.600006 115.724 0.706673 115.938 0.920007C116.151 1.13334 116.258 1.38668 116.258 1.68001V8.20001H121.298C121.591 8.20001 121.844 8.30668 122.058 8.52001C122.271 8.73334 122.378 8.98668 122.378 9.28001V14.12C122.378 14.4133 122.271 14.6667 122.058 14.88C121.844 15.0933 121.591 15.2 121.298 15.2H116.258ZM140.668 11C140.961 10.6533 141.108 10.24 141.108 9.76001C141.108 9.28001 140.961 8.85334 140.668 8.48001C140.401 8.08001 140.001 7.88001 139.468 7.88001H136.108V11.52H139.468C140.001 11.52 140.401 11.3467 140.668 11ZM136.108 18.2V22.12H139.828C140.441 22.12 140.894 21.92 141.188 21.52C141.508 21.0933 141.668 20.6267 141.668 20.12V20.08C141.668 19.5733 141.494 19.1333 141.148 18.76C140.828 18.3867 140.388 18.2 139.828 18.2H136.108ZM140.868 29H127.188C126.894 29 126.641 28.8933 126.428 28.68C126.214 28.4667 126.108 28.2133 126.108 27.92V2.08001C126.108 1.78668 126.214 1.53334 126.428 1.32001C126.641 1.10667 126.894 1.00001 127.188 1.00001H140.468C144.254 1.00001 147.041 1.69334 148.828 3.08001C150.641 4.44001 151.548 6.50668 151.548 9.28001V9.40001C151.548 10.5467 151.214 11.5733 150.548 12.48C149.881 13.36 149.148 14 148.348 14.4C149.414 14.8267 150.308 15.5867 151.028 16.68C151.774 17.7467 152.148 18.92 152.148 20.2C152.148 26.0667 148.388 29 140.868 29ZM176.862 20.96H164.942V21.16C164.942 22.7867 165.462 23.6 166.502 23.6C166.796 23.6 167.156 23.3867 167.582 22.96C168.009 22.5333 168.476 22.32 168.982 22.32H176.542C177.129 22.32 177.422 22.6133 177.422 23.2C177.422 24.5067 176.436 25.8667 174.462 27.28C172.516 28.6933 169.862 29.4 166.502 29.4C163.169 29.4 160.436 28.5333 158.302 26.8C156.196 25.04 155.142 22.6267 155.142 19.56V17.64C155.142 14.7333 156.222 12.3733 158.382 10.56C160.542 8.72001 163.369 7.80001 166.862 7.80001C170.382 7.80001 173.102 8.82668 175.022 10.88C176.969 12.9333 177.942 15.5333 177.942 18.68V19.88C177.942 20.1733 177.836 20.4267 177.622 20.64C177.409 20.8533 177.156 20.96 176.862 20.96ZM168.142 15.8C168.142 14.2 167.609 13.4 166.542 13.4C165.476 13.4 164.942 14.2 164.942 15.8V15.96H168.142V15.8ZM180.728 23.04C180.728 19.44 183.648 17.1333 189.488 16.12L193.728 15.44C193.728 14.64 193.661 14.1067 193.528 13.84C193.395 13.5467 193.075 13.4 192.568 13.4C192.088 13.4 191.608 13.6133 191.128 14.04C190.648 14.4667 190.195 14.68 189.768 14.68H182.968C182.381 14.68 182.088 14.4 182.088 13.84C182.088 13.2533 182.288 12.64 182.688 12C183.115 11.3333 183.715 10.68 184.488 10.04C185.288 9.40001 186.395 8.86668 187.808 8.44001C189.248 8.01334 190.848 7.80001 192.608 7.80001C196.181 7.80001 198.861 8.54668 200.648 10.04C202.435 11.5333 203.328 13.6667 203.328 16.44V27.92C203.328 28.2133 203.221 28.4667 203.008 28.68C202.795 28.8933 202.541 29 202.248 29H195.248C194.955 29 194.701 28.8933 194.488 28.68C194.275 28.4667 194.168 28.2133 194.168 27.92V26.8C192.915 28.5333 191.088 29.4 188.688 29.4C186.288 29.4 184.355 28.8 182.888 27.6C181.448 26.3733 180.728 24.8533 180.728 23.04ZM191.248 23.48C192.981 23.48 193.848 22.44 193.848 20.36L191.488 20.88C190.315 21.1467 189.728 21.64 189.728 22.36C189.728 22.68 189.861 22.9467 190.128 23.16C190.395 23.3733 190.768 23.48 191.248 23.48ZM219.109 15.2V19.6C219.109 20.9333 219.683 21.6 220.829 21.6H224.469C224.763 21.6 225.016 21.7067 225.229 21.92C225.443 22.1333 225.549 22.3867 225.549 22.68V27.92C225.549 28.2133 225.443 28.4667 225.229 28.68C225.016 28.8933 224.763 29 224.469 29H219.949C213.283 29 209.949 26.1333 209.949 20.4V15.2H206.789C206.496 15.2 206.243 15.0933 206.029 14.88C205.816 14.6667 205.709 14.4133 205.709 14.12V9.28001C205.709 8.98668 205.816 8.73334 206.029 8.52001C206.243 8.30668 206.496 8.20001 206.789 8.20001H209.949V1.68001C209.949 1.38668 210.056 1.13334 210.269 0.920007C210.483 0.706673 210.736 0.600006 211.029 0.600006H218.029C218.323 0.600006 218.576 0.706673 218.789 0.920007C219.003 1.13334 219.109 1.38668 219.109 1.68001V8.20001H224.149C224.443 8.20001 224.696 8.30668 224.909 8.52001C225.123 8.73334 225.229 8.98668 225.229 9.28001V14.12C225.229 14.4133 225.123 14.6667 224.909 14.88C224.696 15.0933 224.443 15.2 224.149 15.2H219.109ZM228.639 1.00001H252.079C252.373 1.00001 252.626 1.10667 252.839 1.32001C253.053 1.53334 253.159 1.78668 253.159 2.08001V8.52001C253.159 8.81334 253.053 9.06668 252.839 9.28001C252.626 9.49334 252.373 9.60001 252.079 9.60001H245.439V27.92C245.439 28.2133 245.333 28.4667 245.119 28.68C244.906 28.8933 244.653 29 244.359 29H236.359C236.066 29 235.813 28.8933 235.599 28.68C235.386 28.4667 235.279 28.2133 235.279 27.92V9.60001H228.639C228.346 9.60001 228.093 9.49334 227.879 9.28001C227.666 9.06668 227.559 8.81334 227.559 8.52001V2.08001C227.559 1.78668 227.666 1.53334 227.879 1.32001C228.093 1.10667 228.346 1.00001 228.639 1.00001ZM255.767 23.04C255.767 19.44 258.687 17.1333 264.527 16.12L268.767 15.44C268.767 14.64 268.701 14.1067 268.567 13.84C268.434 13.5467 268.114 13.4 267.607 13.4C267.127 13.4 266.647 13.6133 266.167 14.04C265.687 14.4667 265.234 14.68 264.807 14.68H258.007C257.421 14.68 257.127 14.4 257.127 13.84C257.127 13.2533 257.327 12.64 257.727 12C258.154 11.3333 258.754 10.68 259.527 10.04C260.327 9.40001 261.434 8.86668 262.847 8.44001C264.287 8.01334 265.887 7.80001 267.647 7.80001C271.221 7.80001 273.901 8.54668 275.687 10.04C277.474 11.5333 278.367 13.6667 278.367 16.44V27.92C278.367 28.2133 278.261 28.4667 278.047 28.68C277.834 28.8933 277.581 29 277.287 29H270.287C269.994 29 269.741 28.8933 269.527 28.68C269.314 28.4667 269.207 28.2133 269.207 27.92V26.8C267.954 28.5333 266.127 29.4 263.727 29.4C261.327 29.4 259.394 28.8 257.927 27.6C256.487 26.3733 255.767 24.8533 255.767 23.04ZM266.287 23.48C268.021 23.48 268.887 22.44 268.887 20.36L266.527 20.88C265.354 21.1467 264.767 21.64 264.767 22.36C264.767 22.68 264.901 22.9467 265.167 23.16C265.434 23.3733 265.807 23.48 266.287 23.48ZM290.388 29H283.228C282.935 29 282.682 28.8933 282.468 28.68C282.255 28.4667 282.148 28.2133 282.148 27.92V1.68001C282.148 1.38668 282.255 1.13334 282.468 0.920007C282.682 0.706673 282.935 0.600006 283.228 0.600006H290.388C290.682 0.600006 290.935 0.706673 291.148 0.920007C291.362 1.13334 291.468 1.38668 291.468 1.68001V27.92C291.468 28.2133 291.362 28.4667 291.148 28.68C290.935 28.8933 290.682 29 290.388 29ZM316.589 20.96H304.669V21.16C304.669 22.7867 305.189 23.6 306.229 23.6C306.522 23.6 306.882 23.3867 307.309 22.96C307.735 22.5333 308.202 22.32 308.709 22.32H316.269C316.855 22.32 317.149 22.6133 317.149 23.2C317.149 24.5067 316.162 25.8667 314.189 27.28C312.242 28.6933 309.589 29.4 306.229 29.4C302.895 29.4 300.162 28.5333 298.029 26.8C295.922 25.04 294.869 22.6267 294.869 19.56V17.64C294.869 14.7333 295.949 12.3733 298.109 10.56C300.269 8.72001 303.095 7.80001 306.589 7.80001C310.109 7.80001 312.829 8.82668 314.749 10.88C316.695 12.9333 317.669 15.5333 317.669 18.68V19.88C317.669 20.1733 317.562 20.4267 317.349 20.64C317.135 20.8533 316.882 20.96 316.589 20.96ZM307.869 15.8C307.869 14.2 307.335 13.4 306.269 13.4C305.202 13.4 304.669 14.2 304.669 15.8V15.96H307.869V15.8ZM332.135 23.24C332.135 22.9733 332.068 22.76 331.935 22.6C331.588 22.1733 330.308 21.76 328.095 21.36C325.881 20.9333 324.081 20.2 322.695 19.16C321.335 18.0933 320.655 16.6133 320.655 14.72C320.655 12.8267 321.561 11.2 323.375 9.84001C325.188 8.48001 327.628 7.80001 330.695 7.80001C333.788 7.80001 336.321 8.44001 338.295 9.72001C340.268 11 341.255 12.2933 341.255 13.6C341.255 13.8933 341.161 14.1467 340.975 14.36C340.815 14.5733 340.615 14.68 340.375 14.68H333.655C333.255 14.68 332.761 14.4667 332.175 14.04C331.588 13.6133 331.148 13.4 330.855 13.4C330.241 13.4 329.935 13.6133 329.935 14.04C329.935 14.3067 330.001 14.52 330.135 14.68C330.481 15.08 331.935 15.4667 334.495 15.84C337.055 16.2133 338.961 17.04 340.215 18.32C341.495 19.5733 342.135 20.9733 342.135 22.52C342.135 24.68 341.161 26.3733 339.215 27.6C337.268 28.8267 334.508 29.44 330.935 29.44C329.041 29.44 327.361 29.2267 325.895 28.8C324.428 28.3733 323.308 27.84 322.535 27.2C321.015 25.9467 320.255 24.7733 320.255 23.68C320.255 23.3867 320.348 23.1333 320.535 22.92C320.721 22.7067 320.948 22.6 321.215 22.6H328.175C328.548 22.6 329.028 22.8133 329.615 23.24C330.228 23.64 330.801 23.84 331.335 23.84C331.868 23.84 332.135 23.64 332.135 23.24Z" fill="url(#paint0_linear_720_25)"/>
<path d="M17.0796 19.28H18.0796V18.28H17.0796V19.28ZM10.5996 19.28V18.28H9.59961V19.28H10.5996ZM0.919609 28.72L0.212503 29.4271L0.236046 29.4507L0.261104 29.4726L0.919609 28.72ZM10.5996 10.48H9.59961V11.48H10.5996V10.48ZM17.0796 10.48V11.48H18.0796V10.48H17.0796ZM18.1596 2.00001H25.9996V6.19888e-06H18.1596V2.00001ZM25.9996 2.00001C26.0121 2.00001 26.0186 2.00111 26.0206 2.0015C26.0214 2.00183 26.0224 2.00186 26.0206 2.0015C26.0199 2.00119 26.0223 2.00183 26.0266 2.00474C26.031 2.00775 26.0398 2.0144 26.0525 2.02712L27.4667 0.6129C27.0718 0.218015 26.5665 6.19888e-06 25.9996 6.19888e-06V2.00001ZM26.0525 2.02712C26.0652 2.03983 26.0719 2.04864 26.0749 2.05304C26.0778 2.05727 26.0783 2.05881 26.078 2.05807C26.0777 2.05624 26.0776 2.05728 26.078 2.05807C26.0784 2.06005 26.0796 2.06755 26.0796 2.08001H28.0796C28.0796 1.51311 27.8616 1.00779 27.4667 0.6129L26.0525 2.02712ZM26.0796 2.08001V27.92H28.0796V2.08001H26.0796ZM26.0796 27.92C26.0796 27.9325 26.0785 27.939 26.0781 27.941C26.0777 27.9418 26.0778 27.9428 26.0781 27.941C26.0784 27.9403 26.0778 27.9427 26.0749 27.947C26.0719 27.9514 26.0652 27.9602 26.0525 27.9729L27.4667 29.3871C27.8616 28.9922 28.0796 28.4869 28.0796 27.92H26.0796ZM26.0525 27.9729C26.0398 27.9856 26.031 27.9923 26.0266 27.9953C26.0223 27.9982 26.0208 27.9987 26.0215 27.9984C26.0233 27.9981 26.0223 27.998 26.0215 27.9984C26.0195 27.9988 26.0121 28 25.9996 28V30C26.5665 30 27.0718 29.782 27.4667 29.3871L26.0525 27.9729ZM25.9996 28H18.1596V30H25.9996V28ZM18.1596 28C18.1471 28 18.1406 27.9989 18.1386 27.9985C18.1378 27.9981 18.1368 27.9982 18.1386 27.9985C18.1393 27.9988 18.1369 27.9982 18.1326 27.9953C18.1282 27.9923 18.1194 27.9856 18.1067 27.9729L16.6925 29.3871C17.0874 29.782 17.5927 30 18.1596 30V28ZM18.1067 27.9729C18.094 27.9602 18.0873 27.9514 18.0843 27.947C18.0814 27.9427 18.0809 27.9412 18.0812 27.9419C18.0815 27.9437 18.0816 27.9427 18.0812 27.9419C18.0808 27.9399 18.0796 27.9325 18.0796 27.92H16.0796C16.0796 28.4869 16.2976 28.9922 16.6925 29.3871L18.1067 27.9729ZM18.0796 27.92V19.28H16.0796V27.92H18.0796ZM17.0796 18.28H10.5996V20.28H17.0796V18.28ZM9.59961 19.28V27.92H11.5996V19.28H9.59961ZM9.59961 27.92C9.59961 27.9325 9.59851 27.939 9.59812 27.941C9.59779 27.9418 9.59776 27.9428 9.59812 27.941C9.59843 27.9403 9.59779 27.9427 9.59488 27.947C9.59187 27.9514 9.58522 27.9602 9.5725 27.9729L10.9867 29.3871C11.3816 28.9922 11.5996 28.4869 11.5996 27.92H9.59961ZM9.5725 27.9729C9.55979 27.9856 9.55098 27.9923 9.54658 27.9953C9.54235 27.9982 9.54081 27.9987 9.54155 27.9984C9.54338 27.9981 9.54234 27.998 9.54155 27.9984C9.53957 27.9988 9.53207 28 9.51961 28V30C10.0865 30 10.5918 29.782 10.9867 29.3871L9.5725 27.9729ZM9.51961 28H1.67961V30H9.51961V28ZM1.67961 28C1.61927 28 1.60233 27.9886 1.57812 27.9674L0.261104 29.4726C0.663557 29.8247 1.15328 30 1.67961 30V28ZM1.62672 28.0129C1.61782 28.004 1.6135 27.9981 1.61166 27.9953C1.60989 27.9927 1.60893 27.9907 1.60809 27.9886C1.6071 27.9862 1.59961 27.9673 1.59961 27.92H-0.400391C-0.400391 28.4874 -0.200626 29.014 0.212503 29.4271L1.62672 28.0129ZM1.59961 27.92V2.08001H-0.400391V27.92H1.59961ZM1.59961 2.08001C1.59961 2.06755 1.60071 2.061 1.6011 2.05902C1.60143 2.05823 1.60146 2.05719 1.6011 2.05902C1.60078 2.05976 1.60144 2.05727 1.60434 2.05304C1.60736 2.04864 1.614 2.03983 1.62672 2.02711L0.212502 0.612901C-0.182382 1.00779 -0.400391 1.51311 -0.400391 2.08001H1.59961ZM1.62672 2.02711C1.63943 2.0144 1.64824 2.00775 1.65264 2.00474C1.65687 2.00183 1.65841 2.00133 1.65767 2.00164C1.65584 2.002 1.65688 2.00197 1.65767 2.00164C1.65965 2.00125 1.66716 2.00001 1.67961 2.00001V6.19888e-06C1.11271 6.19888e-06 0.607388 0.218015 0.212502 0.612901L1.62672 2.02711ZM1.67961 2.00001H9.51961V6.19888e-06H1.67961V2.00001ZM9.51961 2.00001C9.53207 2.00001 9.53862 2.00111 9.5406 2.0015C9.54139 2.00183 9.54243 2.00186 9.5406 2.0015C9.53986 2.00119 9.54235 2.00183 9.54658 2.00474C9.55098 2.00775 9.55979 2.0144 9.5725 2.02711L10.9867 0.612901C10.5918 0.218015 10.0865 6.19888e-06 9.51961 6.19888e-06V2.00001ZM9.5725 2.02711C9.58522 2.03982 9.59187 2.04864 9.59488 2.05304C9.59779 2.05727 9.59829 2.05881 9.59798 2.05807C9.59762 2.05624 9.59765 2.05728 9.59798 2.05807C9.59837 2.06005 9.59961 2.06755 9.59961 2.08001H11.5996C11.5996 1.51311 11.3816 1.00779 10.9867 0.612901L9.5725 2.02711ZM9.59961 2.08001V10.48H11.5996V2.08001H9.59961ZM10.5996 11.48H17.0796V9.48001H10.5996V11.48ZM18.0796 10.48V2.08001H16.0796V10.48H18.0796ZM18.0796 2.08001C18.0796 2.06755 18.0807 2.061 18.0811 2.05902C18.0815 2.05823 18.0814 2.05719 18.0811 2.05902C18.0808 2.05976 18.0814 2.05727 18.0843 2.05304C18.0873 2.04864 18.094 2.03983 18.1067 2.02711L16.6925 0.6129C16.2976 1.00779 16.0796 1.51311 16.0796 2.08001H18.0796ZM18.1067 2.02711C18.1194 2.01439 18.1282 2.00775 18.1326 2.00474C18.1369 2.00183 18.1384 2.00133 18.1377 2.00164C18.1359 2.002 18.1369 2.00197 18.1377 2.00164C18.1397 2.00125 18.1471 2.00001 18.1596 2.00001V6.19888e-06C17.5927 6.19888e-06 17.0874 0.218015 16.6925 0.6129L18.1067 2.02711ZM40.8793 20.96V19.96H39.8793V20.96H40.8793ZM50.3993 27.28L49.817 26.467L49.8118 26.4708L50.3993 27.28ZM34.2393 26.8L33.5981 27.5675L33.6087 27.5761L34.2393 26.8ZM34.3193 10.56L34.9623 11.3259L34.9678 11.3212L34.3193 10.56ZM50.9593 10.88L50.2288 11.563L50.2336 11.568L50.9593 10.88ZM40.8793 15.96H39.8793V16.96H40.8793V15.96ZM44.0793 15.96V16.96H45.0793V15.96H44.0793ZM52.7993 19.96H40.8793V21.96H52.7993V19.96ZM39.8793 20.96V21.16H41.8793V20.96H39.8793ZM39.8793 21.16C39.8793 22.0477 40.0154 22.8852 40.4268 23.5287C40.8869 24.2484 41.6097 24.6 42.4393 24.6V22.6C42.311 22.6 42.2475 22.5756 42.2191 22.5608C42.1939 22.5476 42.1571 22.5222 42.1118 22.4513C42.0032 22.2815 41.8793 21.8989 41.8793 21.16H39.8793ZM42.4393 24.6C42.826 24.6 43.167 24.4615 43.4391 24.3003C43.715 24.1368 43.9776 23.9159 44.2264 23.6671L42.8122 22.2529C42.6344 22.4307 42.5036 22.5298 42.4195 22.5797C42.3316 22.6318 42.3459 22.6 42.4393 22.6V24.6ZM44.2264 23.6671C44.5039 23.3896 44.7276 23.32 44.9193 23.32V21.32C44.0976 21.32 43.388 21.6771 42.8122 22.2529L44.2264 23.6671ZM44.9193 23.32H52.4793V21.32H44.9193V23.32ZM52.4793 23.32C52.5456 23.32 52.5629 23.3286 52.5481 23.3237C52.5284 23.3171 52.481 23.2959 52.4322 23.2471C52.3834 23.1983 52.3622 23.1509 52.3556 23.1312C52.3507 23.1164 52.3593 23.1337 52.3593 23.2H54.3593C54.3593 22.7525 54.2467 22.2332 53.8464 21.8329C53.446 21.4325 52.9268 21.32 52.4793 21.32V23.32ZM52.3593 23.2C52.3593 23.9898 51.7416 25.0886 49.817 26.467L50.9816 28.093C53.0037 26.6447 54.3593 25.0235 54.3593 23.2H52.3593ZM49.8118 26.4708C48.0918 27.7196 45.6697 28.4 42.4393 28.4V30.4C45.9289 30.4 48.8135 29.6671 50.9868 28.0892L49.8118 26.4708ZM42.4393 28.4C39.2851 28.4 36.7893 27.5834 34.8699 26.0239L33.6087 27.5761C35.9559 29.4832 38.9269 30.4 42.4393 30.4V28.4ZM34.8804 26.0326C33.0296 24.4863 32.0793 22.3694 32.0793 19.56H30.0793C30.0793 22.8839 31.2357 25.5938 33.5981 27.5675L34.8804 26.0326ZM32.0793 19.56V17.64H30.0793V19.56H32.0793ZM32.0793 17.64C32.0793 15.0184 33.0365 12.9426 34.9623 11.3259L33.6763 9.79412C31.2821 11.804 30.0793 14.4482 30.0793 17.64H32.0793ZM34.9678 11.3212C36.9077 9.66867 39.4867 8.80001 42.7993 8.80001V6.80001C39.1253 6.80001 36.0508 7.77135 33.6708 9.79877L34.9678 11.3212ZM42.7993 8.80001C46.1169 8.80001 48.5433 9.76054 50.2288 11.563L51.6897 10.197C49.5351 7.89281 46.5217 6.80001 42.7993 6.80001V8.80001ZM50.2336 11.568C51.9838 13.4141 52.8793 15.7581 52.8793 18.68H54.8793C54.8793 15.3085 53.8281 12.4526 51.685 10.192L50.2336 11.568ZM52.8793 18.68V19.88H54.8793V18.68H52.8793ZM52.8793 19.88C52.8793 19.8925 52.8782 19.899 52.8778 19.901C52.8774 19.9018 52.8774 19.9028 52.8778 19.901C52.8781 19.9003 52.8775 19.9027 52.8746 19.907C52.8715 19.9114 52.8649 19.9202 52.8522 19.9329L54.2664 21.3471C54.6613 20.9522 54.8793 20.4469 54.8793 19.88H52.8793ZM52.8522 19.9329C52.8395 19.9456 52.8307 19.9523 52.8263 19.9553C52.822 19.9582 52.8205 19.9587 52.8212 19.9584C52.823 19.9581 52.822 19.958 52.8212 19.9584C52.8192 19.9588 52.8117 19.96 52.7993 19.96V21.96C53.3662 21.96 53.8715 21.742 54.2664 21.3471L52.8522 19.9329ZM45.0793 15.8C45.0793 14.9205 44.9384 14.0859 44.5113 13.4453C44.0365 12.7331 43.3039 12.4 42.4793 12.4V14.4C42.7213 14.4 42.7887 14.4669 42.8472 14.5547C42.9535 14.7141 43.0793 15.0795 43.0793 15.8H45.0793ZM42.4793 12.4C41.6546 12.4 40.922 12.7331 40.4472 13.4453C40.0201 14.0859 39.8793 14.9205 39.8793 15.8H41.8793C41.8793 15.0795 42.0051 14.7141 42.1113 14.5547C42.1699 14.4669 42.2373 14.4 42.4793 14.4V12.4ZM39.8793 15.8V15.96H41.8793V15.8H39.8793ZM40.8793 16.96H44.0793V14.96H40.8793V16.96ZM45.0793 15.96V15.8H43.0793V15.96H45.0793ZM65.4252 16.12L65.2669 15.1325L65.2543 15.1347L65.4252 16.12ZM69.6652 15.44L69.8236 16.4274L70.6652 16.2924V15.44H69.6652ZM69.4652 13.84L68.5549 14.2538L68.5625 14.2707L68.5708 14.2872L69.4652 13.84ZM58.6252 12L57.7829 11.4609L57.7772 11.47L58.6252 12ZM60.4252 10.04L59.8005 9.25914L59.7941 9.26432L59.7877 9.26961L60.4252 10.04ZM63.7452 8.44001L63.4611 7.4812L63.4562 7.48268L63.7452 8.44001ZM70.1052 26.8H71.1052V23.7104L69.2949 26.2141L70.1052 26.8ZM58.8252 27.6L58.1768 28.3612L58.1843 28.3677L58.192 28.374L58.8252 27.6ZM69.7852 20.36H70.7852V19.1157L69.57 19.3834L69.7852 20.36ZM67.4252 20.88L67.21 19.9034L67.2036 19.9049L67.4252 20.88ZM57.6652 23.04C57.6652 21.5577 58.2458 20.3658 59.4751 19.3947C60.7491 18.3883 62.7528 17.5987 65.5962 17.1053L65.2543 15.1347C62.2577 15.6547 59.8813 16.5251 58.2353 17.8253C56.5447 19.1609 55.6652 20.9223 55.6652 23.04H57.6652ZM65.5836 17.1074L69.8236 16.4274L69.5069 14.4526L65.2669 15.1325L65.5836 17.1074ZM70.6652 15.44C70.6652 15.0165 70.6478 14.6384 70.6075 14.316C70.5695 14.012 70.5024 13.6783 70.3597 13.3928L68.5708 14.2872C68.5614 14.2683 68.5943 14.3347 68.6229 14.564C68.6493 14.7749 68.6652 15.0635 68.6652 15.44H70.6652ZM70.3756 13.4262C69.9972 12.5938 69.1542 12.4 68.5052 12.4V14.4C68.5849 14.4 68.6402 14.4059 68.6755 14.4121C68.7108 14.4184 68.7188 14.4238 68.7086 14.4191C68.6968 14.4137 68.6676 14.3979 68.6338 14.3651C68.599 14.3313 68.5722 14.2919 68.5549 14.2538L70.3756 13.4262ZM68.5052 12.4C67.7077 12.4 67.0012 12.759 66.4009 13.2926L67.7296 14.7874C68.0893 14.4677 68.3428 14.4 68.5052 14.4V12.4ZM66.4009 13.2926C66.0142 13.6363 65.7889 13.68 65.7052 13.68V15.68C66.4749 15.68 67.1562 15.297 67.7296 14.7874L66.4009 13.2926ZM65.7052 13.68H58.9052V15.68H65.7052V13.68ZM58.9052 13.68C58.835 13.68 58.813 13.6713 58.8234 13.6746C58.8381 13.6793 58.8847 13.698 58.9357 13.7466C58.9877 13.7963 59.014 13.8481 59.0243 13.8778C59.0328 13.9022 59.0252 13.8955 59.0252 13.84H57.0252C57.0252 14.2863 57.1445 14.8017 57.5547 15.1934C57.9563 15.5767 58.4691 15.68 58.9052 15.68V13.68ZM59.0252 13.84C59.0252 13.4874 59.1445 13.0559 59.4732 12.53L57.7772 11.47C57.3059 12.2241 57.0252 13.0192 57.0252 13.84H59.0252ZM59.4675 12.5391C59.8257 11.9794 60.3489 11.4012 61.0628 10.8104L59.7877 9.26961C58.9549 9.95882 58.278 10.6873 57.7829 11.4609L59.4675 12.5391ZM61.0499 10.8209C61.7167 10.2875 62.6936 9.80206 64.0342 9.39734L63.4562 7.48268C61.9702 7.9313 60.7338 8.51254 59.8005 9.25914L61.0499 10.8209ZM64.0293 9.39881C65.3629 9.00368 66.8653 8.80001 68.5452 8.80001V6.80001C66.7051 6.80001 65.0076 7.02299 63.4611 7.4812L64.0293 9.39881ZM68.5452 8.80001C72.0038 8.80001 74.4114 9.52641 75.9439 10.8073L77.2265 9.27273C75.1857 7.56694 72.2334 6.80001 68.5452 6.80001V8.80001ZM75.9439 10.8073C77.4593 12.0739 78.2652 13.9004 78.2652 16.44H80.2652C80.2652 13.4329 79.2845 10.9928 77.2265 9.27273L75.9439 10.8073ZM78.2652 16.44V27.92H80.2652V16.44H78.2652ZM78.2652 27.92C78.2652 27.9325 78.2641 27.939 78.2637 27.941C78.2634 27.9418 78.2634 27.9428 78.2637 27.941C78.264 27.9403 78.2634 27.9427 78.2605 27.947C78.2575 27.9514 78.2508 27.9602 78.2381 27.9729L79.6523 29.3871C80.0472 28.9922 80.2652 28.4869 80.2652 27.92H78.2652ZM78.2381 27.9729C78.2254 27.9856 78.2166 27.9923 78.2122 27.9953C78.208 27.9982 78.2064 27.9987 78.2072 27.9984C78.208 27.998 78.208 27.9982 78.2062 27.9985C78.2042 27.9989 78.1977 28 78.1852 28V30C78.7521 30 79.2574 29.782 79.6523 29.3871L78.2381 27.9729ZM78.1852 28H71.1852V30H78.1852V28ZM71.1852 28C71.1728 28 71.1662 27.9989 71.1642 27.9985C71.1634 27.9981 71.1624 27.9982 71.1642 27.9985C71.1649 27.9988 71.1625 27.9982 71.1583 27.9953C71.1539 27.9923 71.145 27.9856 71.1323 27.9729L69.7181 29.3871C70.113 29.782 70.6183 30 71.1852 30V28ZM71.1323 27.9729C71.1196 27.9602 71.113 27.9514 71.11 27.947C71.1071 27.9427 71.1065 27.9412 71.1069 27.9419C71.1073 27.9437 71.1072 27.9427 71.1069 27.9419C71.1065 27.9399 71.1052 27.9325 71.1052 27.92H69.1052C69.1052 28.4869 69.3232 28.9922 69.7181 29.3871L71.1323 27.9729ZM71.1052 27.92V26.8H69.1052V27.92H71.1052ZM69.2949 26.2141C68.2546 27.6527 66.7496 28.4 64.6252 28.4V30.4C67.3009 30.4 69.4492 29.4139 70.9156 27.3859L69.2949 26.2141ZM64.6252 28.4C62.3932 28.4 60.7032 27.8445 59.4585 26.826L58.192 28.374C59.8806 29.7555 62.0572 30.4 64.6252 30.4V28.4ZM59.4737 26.8388C58.2457 25.7927 57.6652 24.5462 57.6652 23.04H55.6652C55.6652 25.1605 56.5247 26.954 58.1768 28.3612L59.4737 26.8388ZM67.1852 24.48C68.2588 24.48 69.2293 24.1492 69.9034 23.3402C70.5485 22.5661 70.7852 21.5142 70.7852 20.36H68.7852C68.7852 21.2858 68.5886 21.7939 68.367 22.0598C68.1745 22.2908 67.845 22.48 67.1852 22.48V24.48ZM69.57 19.3834L67.21 19.9034L67.6404 21.8566L70.0004 21.3366L69.57 19.3834ZM67.2036 19.9049C66.5413 20.0554 65.927 20.2933 65.4616 20.6846C64.959 21.1073 64.6652 21.6837 64.6652 22.36H66.6652C66.6652 22.3163 66.6648 22.286 66.7488 22.2154C66.8701 22.1134 67.1358 21.9713 67.6468 21.8551L67.2036 19.9049ZM64.6652 22.36C64.6652 23.0065 64.955 23.5524 65.4405 23.9409L66.6899 22.3791C66.6709 22.3639 66.6617 22.3537 66.6584 22.3498C66.6555 22.3462 66.6569 22.3473 66.6597 22.3528C66.6625 22.3585 66.6644 22.3643 66.6654 22.3684C66.6662 22.3722 66.6652 22.3702 66.6652 22.36H64.6652ZM65.4405 23.9409C65.9442 24.3438 66.5686 24.48 67.1852 24.48V22.48C66.8419 22.48 66.7196 22.4029 66.6899 22.3791L65.4405 23.9409ZM91.8065 10.68H90.8065V12.9016L92.4695 11.4286L91.8065 10.68ZM93.0865 17.12L93.7112 17.9009L93.7171 17.8961L93.0865 17.12ZM92.4065 18.44L91.411 18.3452L91.4065 18.3925V18.44H92.4065ZM90.8065 9.28001V10.68H92.8065V9.28001H90.8065ZM92.4695 11.4286C94.1706 9.92194 96.0196 9.20001 98.0465 9.20001V7.20001C95.4867 7.20001 93.1757 8.13142 91.1434 9.93142L92.4695 11.4286ZM98.0465 9.20001H99.9665V7.20001H98.0465V9.20001ZM99.9665 9.20001C99.9789 9.20001 99.9855 9.20111 99.9875 9.2015C99.9883 9.20183 99.9893 9.20186 99.9875 9.2015C99.9868 9.20119 99.9892 9.20183 99.9934 9.20474C99.9978 9.20775 100.007 9.2144 100.02 9.22711L101.434 7.8129C101.039 7.41802 100.534 7.20001 99.9665 7.20001V9.20001ZM100.02 9.22711C100.032 9.23983 100.039 9.24864 100.042 9.25304C100.045 9.25727 100.046 9.25881 100.045 9.25807C100.045 9.25624 100.045 9.25728 100.045 9.25807C100.046 9.26005 100.047 9.26755 100.047 9.28001H102.047C102.047 8.71311 101.829 8.20779 101.434 7.8129L100.02 9.22711ZM100.047 9.28001V15.52H102.047V9.28001H100.047ZM100.047 15.52C100.047 15.5325 100.046 15.539 100.045 15.541C100.045 15.5418 100.045 15.5428 100.045 15.541C100.046 15.5403 100.045 15.5427 100.042 15.547C100.039 15.5514 100.032 15.5602 100.02 15.5729L101.434 16.9871C101.829 16.5922 102.047 16.0869 102.047 15.52H100.047ZM100.02 15.5729C100.007 15.5856 99.9978 15.5923 99.9934 15.5953C99.9892 15.5982 99.9877 15.5987 99.9884 15.5984C99.9902 15.5981 99.9892 15.598 99.9884 15.5984C99.9864 15.5988 99.9789 15.6 99.9665 15.6V17.6C100.534 17.6 101.039 17.382 101.434 16.9871L100.02 15.5729ZM99.9665 15.6H94.8065V17.6H99.9665V15.6ZM94.8065 15.6C93.9286 15.6 93.1095 15.8128 92.4559 16.3439L93.7171 17.8961C93.9168 17.7339 94.2444 17.6 94.8065 17.6V15.6ZM92.4618 16.3391C91.8286 16.8457 91.4872 17.545 91.411 18.3452L93.402 18.5348C93.4324 18.215 93.5444 18.0343 93.7112 17.9009L92.4618 16.3391ZM91.4065 18.44V27.92H93.4065V18.44H91.4065ZM91.4065 27.92C91.4065 27.9325 91.4054 27.939 91.405 27.941C91.4047 27.9418 91.4046 27.9428 91.405 27.941C91.4054 27.9403 91.4047 27.9427 91.4017 27.947C91.3987 27.9514 91.3921 27.9602 91.3794 27.9729L92.7936 29.3871C93.1885 28.9922 93.4065 28.4869 93.4065 27.92H91.4065ZM91.3794 27.9729C91.3667 27.9856 91.3578 27.9923 91.3534 27.9953C91.3492 27.9982 91.3477 27.9987 91.3484 27.9984C91.3502 27.9981 91.3492 27.998 91.3484 27.9984C91.3464 27.9988 91.3389 28 91.3265 28V30C91.8934 30 92.3987 29.782 92.7936 29.3871L91.3794 27.9729ZM91.3265 28H83.7265V30H91.3265V28ZM83.7265 28C83.714 28 83.7075 27.9989 83.7055 27.9985C83.7037 27.9982 83.7037 27.998 83.7045 27.9984C83.7053 27.9987 83.7037 27.9982 83.6995 27.9953C83.6951 27.9923 83.6863 27.9856 83.6736 27.9729L82.2594 29.3871C82.6543 29.782 83.1596 30 83.7265 30V28ZM83.6736 27.9729C83.6609 27.9602 83.6542 27.9514 83.6512 27.947C83.6483 27.9427 83.6478 27.9412 83.6481 27.9419C83.6484 27.9437 83.6484 27.9427 83.6481 27.9419C83.6477 27.9399 83.6465 27.9325 83.6465 27.92H81.6465C81.6465 28.4869 81.8645 28.9922 82.2594 29.3871L83.6736 27.9729ZM83.6465 27.92V9.28001H81.6465V27.92H83.6465ZM83.6465 9.28001C83.6465 9.26755 83.6476 9.261 83.648 9.25902C83.6483 9.25823 83.6483 9.25719 83.648 9.25902C83.6477 9.25976 83.6483 9.25727 83.6512 9.25304C83.6542 9.24864 83.6609 9.23983 83.6736 9.22711L82.2594 7.8129C81.8645 8.20779 81.6465 8.71311 81.6465 9.28001H83.6465ZM83.6736 9.22711C83.6863 9.21439 83.6951 9.20775 83.6995 9.20474C83.7037 9.20183 83.7053 9.20133 83.7045 9.20164C83.7037 9.20197 83.7037 9.20186 83.7055 9.2015C83.7075 9.20111 83.714 9.20001 83.7265 9.20001V7.20001C83.1596 7.20001 82.6543 7.41802 82.2594 7.8129L83.6736 9.22711ZM83.7265 9.20001H90.7265V7.20001H83.7265V9.20001ZM90.7265 9.20001C90.7389 9.20001 90.7455 9.20111 90.7475 9.2015C90.7483 9.20183 90.7493 9.20186 90.7475 9.2015C90.7468 9.20119 90.7492 9.20183 90.7534 9.20474C90.7578 9.20775 90.7667 9.2144 90.7794 9.22711L92.1936 7.8129C91.7987 7.41802 91.2934 7.20001 90.7265 7.20001V9.20001ZM90.7794 9.22711C90.7921 9.23982 90.7987 9.24864 90.8017 9.25304C90.8047 9.25727 90.8052 9.25881 90.8048 9.25807C90.8044 9.25624 90.8045 9.25728 90.8048 9.25807C90.8052 9.26005 90.8065 9.26755 90.8065 9.28001H92.8065C92.8065 8.71311 92.5885 8.20779 92.1936 7.8129L90.7794 9.22711ZM116.258 15.2V14.2H115.258V15.2H116.258ZM107.098 15.2H108.098V14.2H107.098V15.2ZM107.098 8.20001V9.20001H108.098V8.20001H107.098ZM116.258 8.20001H115.258V9.20001H116.258V8.20001ZM115.258 15.2V19.6H117.258V15.2H115.258ZM115.258 19.6C115.258 20.387 115.424 21.1639 115.93 21.752C116.46 22.3691 117.208 22.6 117.978 22.6V20.6C117.601 20.6 117.489 20.4976 117.446 20.448C117.379 20.3695 117.258 20.1464 117.258 19.6H115.258ZM117.978 22.6H121.618V20.6H117.978V22.6ZM121.618 22.6C121.63 22.6 121.637 22.6011 121.639 22.6015C121.641 22.6018 121.641 22.602 121.64 22.6016C121.639 22.6013 121.641 22.6018 121.645 22.6047C121.649 22.6077 121.658 22.6144 121.671 22.6271L123.085 21.2129C122.69 20.818 122.185 20.6 121.618 20.6V22.6ZM121.671 22.6271C121.683 22.6398 121.69 22.6486 121.693 22.653C121.696 22.6573 121.696 22.6588 121.696 22.6581C121.696 22.6563 121.696 22.6573 121.696 22.6581C121.697 22.6601 121.698 22.6675 121.698 22.68H123.698C123.698 22.1131 123.48 21.6078 123.085 21.2129L121.671 22.6271ZM121.698 22.68V27.92H123.698V22.68H121.698ZM121.698 27.92C121.698 27.9325 121.697 27.939 121.696 27.941C121.696 27.9418 121.696 27.9428 121.696 27.941C121.696 27.9403 121.696 27.9427 121.693 27.947C121.69 27.9514 121.683 27.9602 121.671 27.9729L123.085 29.3871C123.48 28.9922 123.698 28.4869 123.698 27.92H121.698ZM121.671 27.9729C121.658 27.9856 121.649 27.9923 121.645 27.9953C121.641 27.9982 121.639 27.9987 121.64 27.9984C121.641 27.998 121.641 27.9982 121.639 27.9985C121.637 27.9989 121.63 28 121.618 28V30C122.185 30 122.69 29.782 123.085 29.3871L121.671 27.9729ZM121.618 28H117.098V30H121.618V28ZM117.098 28C113.885 28 111.662 27.306 110.25 26.0918C108.867 24.9025 108.098 23.0699 108.098 20.4H106.098C106.098 23.4635 106.995 25.9309 108.946 27.6082C110.867 29.2607 113.644 30 117.098 30V28ZM108.098 20.4V15.2H106.098V20.4H108.098ZM107.098 14.2H103.938V16.2H107.098V14.2ZM103.938 14.2C103.925 14.2 103.919 14.1989 103.917 14.1985C103.915 14.1982 103.915 14.198 103.916 14.1984C103.917 14.1987 103.915 14.1982 103.911 14.1953C103.906 14.1923 103.898 14.1856 103.885 14.1729L102.471 15.5871C102.866 15.982 103.371 16.2 103.938 16.2V14.2ZM103.885 14.1729C103.872 14.1602 103.866 14.1514 103.863 14.147C103.86 14.1427 103.859 14.1412 103.859 14.1419C103.86 14.1437 103.86 14.1427 103.859 14.1419C103.859 14.1399 103.858 14.1325 103.858 14.12H101.858C101.858 14.6869 102.076 15.1922 102.471 15.5871L103.885 14.1729ZM103.858 14.12V9.28001H101.858V14.12H103.858ZM103.858 9.28001C103.858 9.26755 103.859 9.261 103.859 9.25902C103.86 9.25823 103.86 9.25719 103.859 9.25902C103.859 9.25976 103.86 9.25727 103.863 9.25304C103.866 9.24864 103.872 9.23983 103.885 9.22712L102.471 7.8129C102.076 8.20779 101.858 8.71311 101.858 9.28001H103.858ZM103.885 9.22712C103.898 9.2144 103.906 9.20775 103.911 9.20474C103.915 9.20183 103.917 9.20133 103.916 9.20164C103.915 9.20197 103.915 9.20186 103.917 9.2015C103.919 9.20111 103.925 9.20001 103.938 9.20001V7.20001C103.371 7.20001 102.866 7.41802 102.471 7.8129L103.885 9.22712ZM103.938 9.20001H107.098V7.20001H103.938V9.20001ZM108.098 8.20001V1.68001H106.098V8.20001H108.098ZM108.098 1.68001C108.098 1.66755 108.099 1.661 108.099 1.65902C108.1 1.65823 108.1 1.65719 108.099 1.65902C108.099 1.65976 108.1 1.65727 108.103 1.65304C108.106 1.64864 108.112 1.63983 108.125 1.62712L106.711 0.212901C106.316 0.607786 106.098 1.11311 106.098 1.68001H108.098ZM108.125 1.62712C108.138 1.6144 108.146 1.60775 108.151 1.60474C108.155 1.60183 108.157 1.60133 108.156 1.60164C108.155 1.60197 108.155 1.60186 108.157 1.6015C108.159 1.60111 108.165 1.60001 108.178 1.60001V-0.399994C107.611 -0.399994 107.106 -0.181985 106.711 0.212901L108.125 1.62712ZM108.178 1.60001H115.178V-0.399994H108.178V1.60001ZM115.178 1.60001C115.19 1.60001 115.197 1.60111 115.199 1.6015C115.201 1.60186 115.201 1.60197 115.2 1.60164C115.199 1.60133 115.201 1.60183 115.205 1.60474C115.209 1.60775 115.218 1.6144 115.231 1.62711L116.645 0.212902C116.25 -0.181985 115.745 -0.399994 115.178 -0.399994V1.60001ZM115.231 1.62711C115.243 1.63982 115.25 1.64864 115.253 1.65304C115.256 1.65727 115.256 1.65881 115.256 1.65807C115.256 1.65624 115.256 1.65728 115.256 1.65807C115.257 1.66005 115.258 1.66755 115.258 1.68001H117.258C117.258 1.11311 117.04 0.607787 116.645 0.212902L115.231 1.62711ZM115.258 1.68001V8.20001H117.258V1.68001H115.258ZM116.258 9.20001H121.298V7.20001H116.258V9.20001ZM121.298 9.20001C121.31 9.20001 121.317 9.20111 121.319 9.2015C121.321 9.20186 121.321 9.20197 121.32 9.20164C121.319 9.20133 121.321 9.20183 121.325 9.20474C121.329 9.20775 121.338 9.2144 121.351 9.22712L122.765 7.8129C122.37 7.41802 121.865 7.20001 121.298 7.20001V9.20001ZM121.351 9.22712C121.363 9.23984 121.37 9.24864 121.373 9.25304C121.376 9.25727 121.376 9.25881 121.376 9.25807C121.376 9.25624 121.376 9.25728 121.376 9.25807C121.377 9.26005 121.378 9.26755 121.378 9.28001H123.378C123.378 8.71311 123.16 8.20779 122.765 7.8129L121.351 9.22712ZM121.378 9.28001V14.12H123.378V9.28001H121.378ZM121.378 14.12C121.378 14.1325 121.377 14.139 121.376 14.141C121.376 14.1418 121.376 14.1428 121.376 14.141C121.376 14.1403 121.376 14.1427 121.373 14.147C121.37 14.1514 121.363 14.1602 121.351 14.1729L122.765 15.5871C123.16 15.1922 123.378 14.6869 123.378 14.12H121.378ZM121.351 14.1729C121.338 14.1856 121.329 14.1923 121.325 14.1953C121.321 14.1982 121.319 14.1987 121.32 14.1984C121.321 14.198 121.321 14.1982 121.319 14.1985C121.317 14.1989 121.31 14.2 121.298 14.2V16.2C121.865 16.2 122.37 15.982 122.765 15.5871L121.351 14.1729ZM121.298 14.2H116.258V16.2H121.298V14.2ZM140.668 11L139.904 10.3541L139.889 10.3718L139.875 10.3903L140.668 11ZM140.668 8.48001L139.836 9.03471L139.857 9.06716L139.881 9.09783L140.668 8.48001ZM136.108 7.88001V6.88001H135.108V7.88001H136.108ZM136.108 11.52H135.108V12.52H136.108V11.52ZM136.108 18.2V17.2H135.108V18.2H136.108ZM136.108 22.12H135.108V23.12H136.108V22.12ZM141.188 21.52L140.388 20.92L140.381 20.9286L141.188 21.52ZM141.148 18.76L140.389 19.4108L140.401 19.4259L140.415 19.4405L141.148 18.76ZM148.828 3.08001L148.215 3.87L148.221 3.87506L148.228 3.88001L148.828 3.08001ZM150.548 12.48L151.345 13.0839L151.349 13.0782L151.353 13.0724L150.548 12.48ZM148.348 14.4L147.901 13.5056L145.909 14.5014L147.976 15.3285L148.348 14.4ZM151.028 16.68L150.193 17.23L150.2 17.2418L150.209 17.2535L151.028 16.68ZM141.431 11.6459C141.886 11.1079 142.108 10.4619 142.108 9.76001H140.108C140.108 10.0181 140.036 10.1988 139.904 10.3541L141.431 11.6459ZM142.108 9.76001C142.108 9.05862 141.888 8.4138 141.454 7.86219L139.881 9.09783C140.035 9.29289 140.108 9.5014 140.108 9.76001H142.108ZM141.5 7.92531C141.025 7.2131 140.292 6.88001 139.468 6.88001V8.88001C139.71 8.88001 139.777 8.94692 139.836 9.03471L141.5 7.92531ZM139.468 6.88001H136.108V8.88001H139.468V6.88001ZM135.108 7.88001V11.52H137.108V7.88001H135.108ZM136.108 12.52H139.468V10.52H136.108V12.52ZM139.468 12.52C140.236 12.52 140.963 12.2569 141.46 11.6097L139.875 10.3903C139.84 10.4364 139.767 10.52 139.468 10.52V12.52ZM135.108 18.2V22.12H137.108V18.2H135.108ZM136.108 23.12H139.828V21.12H136.108V23.12ZM139.828 23.12C140.675 23.12 141.468 22.8293 141.994 22.1114L140.381 20.9286C140.321 21.0107 140.207 21.12 139.828 21.12V23.12ZM141.988 22.12C142.43 21.53 142.668 20.8549 142.668 20.12H140.668C140.668 20.3984 140.585 20.6567 140.388 20.92L141.988 22.12ZM142.668 20.12V20.08H140.668V20.12H142.668ZM142.668 20.08C142.668 19.3194 142.398 18.6367 141.881 18.0795L140.415 19.4405C140.591 19.63 140.668 19.8273 140.668 20.08H142.668ZM141.907 18.1092C141.37 17.482 140.635 17.2 139.828 17.2V19.2C140.141 19.2 140.286 19.2913 140.389 19.4108L141.907 18.1092ZM139.828 17.2H136.108V19.2H139.828V17.2ZM140.868 28H127.188V30H140.868V28ZM127.188 28C127.175 28 127.169 27.9989 127.167 27.9985C127.165 27.9982 127.165 27.998 127.166 27.9984C127.167 27.9987 127.165 27.9982 127.161 27.9953C127.156 27.9923 127.148 27.9856 127.135 27.9729L125.721 29.3871C126.116 29.782 126.621 30 127.188 30V28ZM127.135 27.9729C127.122 27.9602 127.116 27.9514 127.113 27.947C127.11 27.9427 127.109 27.9412 127.109 27.9419C127.11 27.9437 127.11 27.9427 127.109 27.9419C127.109 27.9399 127.108 27.9325 127.108 27.92H125.108C125.108 28.4869 125.326 28.9922 125.721 29.3871L127.135 27.9729ZM127.108 27.92V2.08001H125.108V27.92H127.108ZM127.108 2.08001C127.108 2.06755 127.109 2.061 127.109 2.05902C127.11 2.05823 127.11 2.05719 127.109 2.05902C127.109 2.05976 127.11 2.05727 127.113 2.05304C127.116 2.04864 127.122 2.03983 127.135 2.02711L125.721 0.612901C125.326 1.00779 125.108 1.51311 125.108 2.08001H127.108ZM127.135 2.02711C127.148 2.0144 127.156 2.00775 127.161 2.00474C127.165 2.00183 127.167 2.00133 127.166 2.00164C127.165 2.00197 127.165 2.00186 127.167 2.0015C127.169 2.00111 127.175 2.00001 127.188 2.00001V6.19888e-06C126.621 6.19888e-06 126.116 0.218015 125.721 0.612901L127.135 2.02711ZM127.188 2.00001H140.468V6.19888e-06H127.188V2.00001ZM140.468 2.00001C144.169 2.00001 146.687 2.68445 148.215 3.87L149.441 2.29002C147.395 0.702229 144.34 6.19888e-06 140.468 6.19888e-06V2.00001ZM148.228 3.88001C149.732 5.00851 150.548 6.74284 150.548 9.28001H152.548C152.548 6.27051 151.55 3.87151 149.428 2.28001L148.228 3.88001ZM150.548 9.28001V9.40001H152.548V9.28001H150.548ZM150.548 9.40001C150.548 10.3379 150.28 11.1561 149.742 11.8876L151.353 13.0724C152.149 11.9906 152.548 10.7555 152.548 9.40001H150.548ZM149.751 11.8761C149.156 12.6618 148.535 13.1885 147.901 13.5056L148.795 15.2944C149.761 14.8115 150.607 14.0582 151.345 13.0839L149.751 11.8761ZM147.976 15.3285C148.828 15.669 149.569 16.2826 150.193 17.23L151.863 16.13C151.047 14.8908 150.001 13.9843 148.719 13.4715L147.976 15.3285ZM150.209 17.2535C150.84 18.1551 151.148 19.1289 151.148 20.2H153.148C153.148 18.7111 152.709 17.3382 151.847 16.1065L150.209 17.2535ZM151.148 20.2C151.148 22.9038 150.294 24.7779 148.713 26.0116C147.084 27.282 144.525 28 140.868 28V30C144.73 30 147.811 29.2513 149.943 27.5884C152.122 25.8887 153.148 23.3629 153.148 20.2H151.148ZM164.942 20.96V19.96H163.942V20.96H164.942ZM174.462 27.28L173.88 26.467L173.875 26.4708L174.462 27.28ZM158.302 26.8L157.661 27.5675L157.672 27.5761L158.302 26.8ZM158.382 10.56L159.025 11.3259L159.031 11.3212L158.382 10.56ZM175.022 10.88L174.292 11.563L174.296 11.568L175.022 10.88ZM164.942 15.96H163.942V16.96H164.942V15.96ZM168.142 15.96V16.96H169.142V15.96H168.142ZM176.862 19.96H164.942V21.96H176.862V19.96ZM163.942 20.96V21.16H165.942V20.96H163.942ZM163.942 21.16C163.942 22.0477 164.078 22.8852 164.49 23.5287C164.95 24.2484 165.673 24.6 166.502 24.6V22.6C166.374 22.6 166.31 22.5756 166.282 22.5608C166.257 22.5476 166.22 22.5222 166.175 22.4513C166.066 22.2815 165.942 21.8989 165.942 21.16H163.942ZM166.502 24.6C166.889 24.6 167.23 24.4615 167.502 24.3003C167.778 24.1368 168.04 23.9159 168.289 23.6671L166.875 22.2529C166.697 22.4307 166.567 22.5298 166.482 22.5797C166.394 22.6318 166.409 22.6 166.502 22.6V24.6ZM168.289 23.6671C168.567 23.3896 168.791 23.32 168.982 23.32V21.32C168.161 21.32 167.451 21.6771 166.875 22.2529L168.289 23.6671ZM168.982 23.32H176.542V21.32H168.982V23.32ZM176.542 23.32C176.609 23.32 176.626 23.3286 176.611 23.3237C176.591 23.3171 176.544 23.2959 176.495 23.2471C176.446 23.1983 176.425 23.1509 176.419 23.1312C176.414 23.1164 176.422 23.1337 176.422 23.2H178.422C178.422 22.7525 178.31 22.2332 177.909 21.8329C177.509 21.4325 176.99 21.32 176.542 21.32V23.32ZM176.422 23.2C176.422 23.9898 175.804 25.0886 173.88 26.467L175.044 28.093C177.067 26.6447 178.422 25.0235 178.422 23.2H176.422ZM173.875 26.4708C172.155 27.7196 169.733 28.4 166.502 28.4V30.4C169.992 30.4 172.876 29.6671 175.05 28.0892L173.875 26.4708ZM166.502 28.4C163.348 28.4 160.852 27.5834 158.933 26.0239L157.672 27.5761C160.019 29.4832 162.99 30.4 166.502 30.4V28.4ZM158.943 26.0326C157.092 24.4863 156.142 22.3694 156.142 19.56H154.142C154.142 22.8839 155.299 25.5938 157.661 27.5675L158.943 26.0326ZM156.142 19.56V17.64H154.142V19.56H156.142ZM156.142 17.64C156.142 15.0184 157.099 12.9426 159.025 11.3259L157.739 9.79412C155.345 11.804 154.142 14.4482 154.142 17.64H156.142ZM159.031 11.3212C160.971 9.66867 163.55 8.80001 166.862 8.80001V6.80001C163.188 6.80001 160.114 7.77135 157.734 9.79877L159.031 11.3212ZM166.862 8.80001C170.18 8.80001 172.606 9.76054 174.292 11.563L175.753 10.197C173.598 7.89281 170.585 6.80001 166.862 6.80001V8.80001ZM174.296 11.568C176.047 13.4141 176.942 15.7581 176.942 18.68H178.942C178.942 15.3085 177.891 12.4526 175.748 10.192L174.296 11.568ZM176.942 18.68V19.88H178.942V18.68H176.942ZM176.942 19.88C176.942 19.8925 176.941 19.899 176.941 19.901C176.94 19.9018 176.94 19.9028 176.941 19.901C176.941 19.9003 176.94 19.9027 176.937 19.907C176.934 19.9114 176.928 19.9202 176.915 19.9329L178.329 21.3471C178.724 20.9522 178.942 20.4469 178.942 19.88H176.942ZM176.915 19.9329C176.902 19.9456 176.894 19.9523 176.889 19.9553C176.885 19.9582 176.883 19.9587 176.884 19.9584C176.885 19.958 176.885 19.9582 176.883 19.9585C176.881 19.9589 176.875 19.96 176.862 19.96V21.96C177.429 21.96 177.934 21.742 178.329 21.3471L176.915 19.9329ZM169.142 15.8C169.142 14.9205 169.001 14.0859 168.574 13.4453C168.099 12.7331 167.367 12.4 166.542 12.4V14.4C166.784 14.4 166.852 14.4669 166.91 14.5547C167.016 14.7141 167.142 15.0795 167.142 15.8H169.142ZM166.542 12.4C165.718 12.4 164.985 12.7331 164.51 13.4453C164.083 14.0859 163.942 14.9205 163.942 15.8H165.942C165.942 15.0795 166.068 14.7141 166.174 14.5547C166.233 14.4669 166.3 14.4 166.542 14.4V12.4ZM163.942 15.8V15.96H165.942V15.8H163.942ZM164.942 16.96H168.142V14.96H164.942V16.96ZM169.142 15.96V15.8H167.142V15.96H169.142ZM189.488 16.12L189.33 15.1325L189.317 15.1347L189.488 16.12ZM193.728 15.44L193.886 16.4274L194.728 16.2924V15.44H193.728ZM193.528 13.84L192.618 14.2538L192.625 14.2707L192.634 14.2872L193.528 13.84ZM182.688 12L181.846 11.4609L181.84 11.47L182.688 12ZM184.488 10.04L183.863 9.25914L183.857 9.26432L183.851 9.26961L184.488 10.04ZM187.808 8.44001L187.524 7.4812L187.519 7.48268L187.808 8.44001ZM194.168 26.8H195.168V23.7104L193.358 26.2141L194.168 26.8ZM182.888 27.6L182.24 28.3612L182.247 28.3677L182.255 28.374L182.888 27.6ZM193.848 20.36H194.848V19.1157L193.633 19.3834L193.848 20.36ZM191.488 20.88L191.273 19.9034L191.267 19.9049L191.488 20.88ZM181.728 23.04C181.728 21.5577 182.309 20.3658 183.538 19.3947C184.812 18.3883 186.816 17.5987 189.659 17.1053L189.317 15.1347C186.321 15.6547 183.944 16.5251 182.298 17.8253C180.608 19.1609 179.728 20.9223 179.728 23.04H181.728ZM189.646 17.1074L193.886 16.4274L193.57 14.4526L189.33 15.1325L189.646 17.1074ZM194.728 15.44C194.728 15.0165 194.711 14.6384 194.67 14.316C194.632 14.012 194.565 13.6783 194.423 13.3928L192.634 14.2872C192.624 14.2683 192.657 14.3347 192.686 14.564C192.712 14.7749 192.728 15.0635 192.728 15.44H194.728ZM194.438 13.4262C194.06 12.5938 193.217 12.4 192.568 12.4V14.4C192.648 14.4 192.703 14.4059 192.738 14.4121C192.774 14.4184 192.782 14.4238 192.771 14.4191C192.76 14.4137 192.73 14.3979 192.697 14.3651C192.662 14.3313 192.635 14.2919 192.618 14.2538L194.438 13.4262ZM192.568 12.4C191.771 12.4 191.064 12.759 190.464 13.2926L191.792 14.7874C192.152 14.4677 192.406 14.4 192.568 14.4V12.4ZM190.464 13.2926C190.077 13.6363 189.852 13.68 189.768 13.68V15.68C190.538 15.68 191.219 15.297 191.792 14.7874L190.464 13.2926ZM189.768 13.68H182.968V15.68H189.768V13.68ZM182.968 13.68C182.898 13.68 182.876 13.6713 182.886 13.6746C182.901 13.6793 182.948 13.698 182.999 13.7466C183.051 13.7963 183.077 13.8481 183.087 13.8778C183.096 13.9022 183.088 13.8955 183.088 13.84H181.088C181.088 14.2863 181.207 14.8017 181.618 15.1934C182.019 15.5767 182.532 15.68 182.968 15.68V13.68ZM183.088 13.84C183.088 13.4874 183.207 13.0559 183.536 12.53L181.84 11.47C181.369 12.2241 181.088 13.0192 181.088 13.84H183.088ZM183.53 12.5391C183.889 11.9794 184.412 11.4012 185.126 10.8104L183.851 9.26961C183.018 9.95882 182.341 10.6873 181.846 11.4609L183.53 12.5391ZM185.113 10.8209C185.78 10.2875 186.756 9.80206 188.097 9.39734L187.519 7.48268C186.033 7.9313 184.797 8.51254 183.863 9.25914L185.113 10.8209ZM188.092 9.39881C189.426 9.00368 190.928 8.80001 192.608 8.80001V6.80001C190.768 6.80001 189.07 7.02299 187.524 7.4812L188.092 9.39881ZM192.608 8.80001C196.067 8.80001 198.474 9.52641 200.007 10.8073L201.289 9.27273C199.249 7.56694 196.296 6.80001 192.608 6.80001V8.80001ZM200.007 10.8073C201.522 12.0739 202.328 13.9004 202.328 16.44H204.328C204.328 13.4329 203.347 10.9928 201.289 9.27273L200.007 10.8073ZM202.328 16.44V27.92H204.328V16.44H202.328ZM202.328 27.92C202.328 27.9325 202.327 27.939 202.327 27.941C202.326 27.9428 202.326 27.9427 202.326 27.9419C202.327 27.9412 202.326 27.9427 202.323 27.947C202.32 27.9514 202.314 27.9602 202.301 27.9729L203.715 29.3871C204.11 28.9922 204.328 28.4869 204.328 27.92H202.328ZM202.301 27.9729C202.288 27.9856 202.279 27.9923 202.275 27.9953C202.271 27.9982 202.269 27.9987 202.27 27.9984C202.271 27.998 202.271 27.9982 202.269 27.9985C202.267 27.9989 202.261 28 202.248 28V30C202.815 30 203.32 29.782 203.715 29.3871L202.301 27.9729ZM202.248 28H195.248V30H202.248V28ZM195.248 28C195.236 28 195.229 27.9989 195.227 27.9985C195.225 27.9982 195.225 27.998 195.226 27.9984C195.227 27.9987 195.225 27.9982 195.221 27.9953C195.217 27.9923 195.208 27.9856 195.195 27.9729L193.781 29.3871C194.176 29.782 194.681 30 195.248 30V28ZM195.195 27.9729C195.183 27.9602 195.176 27.9514 195.173 27.947C195.17 27.9427 195.169 27.9412 195.17 27.9419C195.17 27.9437 195.17 27.9427 195.17 27.9419C195.169 27.9399 195.168 27.9325 195.168 27.92H193.168C193.168 28.4869 193.386 28.9922 193.781 29.3871L195.195 27.9729ZM195.168 27.92V26.8H193.168V27.92H195.168ZM193.358 26.2141C192.318 27.6527 190.812 28.4 188.688 28.4V30.4C191.364 30.4 193.512 29.4139 194.978 27.3859L193.358 26.2141ZM188.688 28.4C186.456 28.4 184.766 27.8445 183.521 26.826L182.255 28.374C183.943 29.7555 186.12 30.4 188.688 30.4V28.4ZM183.537 26.8388C182.309 25.7927 181.728 24.5462 181.728 23.04H179.728C179.728 25.1605 180.588 26.954 182.24 28.3612L183.537 26.8388ZM191.248 24.48C192.322 24.48 193.292 24.1492 193.966 23.3402C194.611 22.5661 194.848 21.5142 194.848 20.36H192.848C192.848 21.2858 192.651 21.7939 192.43 22.0598C192.237 22.2908 191.908 22.48 191.248 22.48V24.48ZM193.633 19.3834L191.273 19.9034L191.703 21.8566L194.063 21.3366L193.633 19.3834ZM191.267 19.9049C190.604 20.0554 189.99 20.2933 189.525 20.6846C189.022 21.1073 188.728 21.6837 188.728 22.36H190.728C190.728 22.3163 190.728 22.286 190.812 22.2154C190.933 22.1134 191.199 21.9713 191.71 21.8551L191.267 19.9049ZM188.728 22.36C188.728 23.0065 189.018 23.5524 189.503 23.9409L190.753 22.3791C190.734 22.3639 190.725 22.3537 190.721 22.3498C190.718 22.3462 190.72 22.3473 190.723 22.3528C190.725 22.3585 190.727 22.3643 190.728 22.3684C190.729 22.3722 190.728 22.3702 190.728 22.36H188.728ZM189.503 23.9409C190.007 24.3438 190.631 24.48 191.248 24.48V22.48C190.905 22.48 190.783 22.4029 190.753 22.3791L189.503 23.9409ZM219.109 15.2V14.2H218.109V15.2H219.109ZM209.949 15.2H210.949V14.2H209.949V15.2ZM209.949 8.20001V9.20001H210.949V8.20001H209.949ZM219.109 8.20001H218.109V9.20001H219.109V8.20001ZM218.109 15.2V19.6H220.109V15.2H218.109ZM218.109 19.6C218.109 20.387 218.275 21.1639 218.781 21.752C219.312 22.3691 220.059 22.6 220.829 22.6V20.6C220.453 20.6 220.34 20.4976 220.298 20.448C220.23 20.3695 220.109 20.1464 220.109 19.6H218.109ZM220.829 22.6H224.469V20.6H220.829V22.6ZM224.469 22.6C224.482 22.6 224.488 22.6011 224.49 22.6015C224.491 22.6019 224.492 22.6018 224.49 22.6015C224.49 22.6012 224.492 22.6018 224.496 22.6047C224.501 22.6077 224.51 22.6144 224.522 22.6271L225.936 21.2129C225.542 20.818 225.036 20.6 224.469 20.6V22.6ZM224.522 22.6271C224.535 22.6398 224.542 22.6486 224.545 22.653C224.548 22.6573 224.548 22.6588 224.548 22.6581C224.548 22.6563 224.547 22.6573 224.548 22.6581C224.548 22.6601 224.549 22.6675 224.549 22.68H226.549C226.549 22.1131 226.331 21.6078 225.936 21.2129L224.522 22.6271ZM224.549 22.68V27.92H226.549V22.68H224.549ZM224.549 27.92C224.549 27.9325 224.548 27.939 224.548 27.941C224.547 27.9418 224.548 27.9428 224.548 27.941C224.548 27.9403 224.548 27.9427 224.545 27.947C224.542 27.9514 224.535 27.9602 224.522 27.9729L225.936 29.3871C226.331 28.9922 226.549 28.4869 226.549 27.92H224.549ZM224.522 27.9729C224.51 27.9856 224.501 27.9923 224.496 27.9953C224.492 27.9982 224.491 27.9987 224.491 27.9984C224.493 27.9981 224.492 27.998 224.491 27.9984C224.489 27.9988 224.482 28 224.469 28V30C225.036 30 225.542 29.782 225.936 29.3871L224.522 27.9729ZM224.469 28H219.949V30H224.469V28ZM219.949 28C216.736 28 214.513 27.306 213.101 26.0918C211.718 24.9025 210.949 23.0699 210.949 20.4H208.949C208.949 23.4635 209.847 25.9309 211.797 27.6082C213.719 29.2607 216.496 30 219.949 30V28ZM210.949 20.4V15.2H208.949V20.4H210.949ZM209.949 14.2H206.789V16.2H209.949V14.2ZM206.789 14.2C206.777 14.2 206.77 14.1989 206.768 14.1985C206.767 14.1982 206.767 14.198 206.767 14.1984C206.768 14.1987 206.767 14.1982 206.762 14.1953C206.758 14.1923 206.749 14.1856 206.736 14.1729L205.322 15.5871C205.717 15.982 206.222 16.2 206.789 16.2V14.2ZM206.736 14.1729C206.724 14.1602 206.717 14.1514 206.714 14.147C206.711 14.1427 206.711 14.1412 206.711 14.1419C206.711 14.1437 206.711 14.1427 206.711 14.1419C206.71 14.1399 206.709 14.1325 206.709 14.12H204.709C204.709 14.6869 204.927 15.1922 205.322 15.5871L206.736 14.1729ZM206.709 14.12V9.28001H204.709V14.12H206.709ZM206.709 9.28001C206.709 9.26755 206.71 9.261 206.711 9.25902C206.711 9.25823 206.711 9.25719 206.711 9.25902C206.711 9.25976 206.711 9.25727 206.714 9.25304C206.717 9.24864 206.724 9.23983 206.736 9.22712L205.322 7.8129C204.927 8.20779 204.709 8.71311 204.709 9.28001H206.709ZM206.736 9.22712C206.749 9.2144 206.758 9.20775 206.762 9.20474C206.767 9.20183 206.768 9.20133 206.767 9.20164C206.767 9.20197 206.767 9.20186 206.768 9.2015C206.77 9.20111 206.777 9.20001 206.789 9.20001V7.20001C206.222 7.20001 205.717 7.41802 205.322 7.8129L206.736 9.22712ZM206.789 9.20001H209.949V7.20001H206.789V9.20001ZM210.949 8.20001V1.68001H208.949V8.20001H210.949ZM210.949 1.68001C210.949 1.66755 210.95 1.661 210.951 1.65902C210.951 1.65823 210.951 1.65719 210.951 1.65902C210.951 1.65976 210.951 1.65727 210.954 1.65304C210.957 1.64864 210.964 1.63983 210.976 1.62712L209.562 0.212901C209.167 0.607786 208.949 1.11311 208.949 1.68001H210.949ZM210.976 1.62712C210.989 1.6144 210.998 1.60775 211.002 1.60474C211.007 1.60183 211.008 1.60133 211.007 1.60164C211.007 1.60197 211.007 1.60186 211.008 1.6015C211.01 1.60111 211.017 1.60001 211.029 1.60001V-0.399994C210.462 -0.399994 209.957 -0.181985 209.562 0.212901L210.976 1.62712ZM211.029 1.60001H218.029V-0.399994H211.029V1.60001ZM218.029 1.60001C218.042 1.60001 218.048 1.60111 218.05 1.6015C218.052 1.60186 218.052 1.60197 218.051 1.60164C218.051 1.60133 218.052 1.60183 218.056 1.60474C218.061 1.60775 218.07 1.6144 218.082 1.62711L219.496 0.212902C219.102 -0.181985 218.596 -0.399994 218.029 -0.399994V1.60001ZM218.082 1.62711C218.095 1.63982 218.102 1.64864 218.105 1.65304C218.108 1.65727 218.108 1.65881 218.108 1.65807C218.108 1.65624 218.107 1.65728 218.108 1.65807C218.108 1.66005 218.109 1.66755 218.109 1.68001H220.109C220.109 1.11311 219.891 0.607787 219.496 0.212902L218.082 1.62711ZM218.109 1.68001V8.20001H220.109V1.68001H218.109ZM219.109 9.20001H224.149V7.20001H219.109V9.20001ZM224.149 9.20001C224.162 9.20001 224.168 9.20111 224.17 9.2015C224.172 9.20186 224.172 9.20197 224.171 9.20164C224.171 9.20133 224.172 9.20183 224.176 9.20474C224.181 9.20775 224.19 9.2144 224.202 9.22712L225.616 7.8129C225.222 7.41802 224.716 7.20001 224.149 7.20001V9.20001ZM224.202 9.22712C224.215 9.23984 224.222 9.24864 224.225 9.25304C224.228 9.25727 224.228 9.25881 224.228 9.25807C224.228 9.25624 224.227 9.25728 224.228 9.25807C224.228 9.26005 224.229 9.26755 224.229 9.28001H226.229C226.229 8.71311 226.011 8.20779 225.616 7.8129L224.202 9.22712ZM224.229 9.28001V14.12H226.229V9.28001H224.229ZM224.229 14.12C224.229 14.1325 224.228 14.139 224.228 14.141C224.227 14.1418 224.228 14.1428 224.228 14.141C224.228 14.1403 224.228 14.1427 224.225 14.147C224.222 14.1514 224.215 14.1602 224.202 14.1729L225.616 15.5871C226.011 15.1922 226.229 14.6869 226.229 14.12H224.229ZM224.202 14.1729C224.19 14.1856 224.181 14.1923 224.176 14.1953C224.172 14.1982 224.171 14.1987 224.171 14.1984C224.172 14.198 224.172 14.1982 224.17 14.1985C224.168 14.1989 224.162 14.2 224.149 14.2V16.2C224.716 16.2 225.222 15.982 225.616 15.5871L224.202 14.1729ZM224.149 14.2H219.109V16.2H224.149V14.2ZM245.439 9.60001V8.60001H244.439V9.60001H245.439ZM235.279 9.60001H236.279V8.60001H235.279V9.60001ZM228.639 2.00001H252.079V6.19888e-06H228.639V2.00001ZM252.079 2.00001C252.092 2.00001 252.098 2.00111 252.1 2.0015C252.102 2.00186 252.102 2.00197 252.101 2.00164C252.101 2.00133 252.102 2.00183 252.106 2.00474C252.111 2.00775 252.12 2.0144 252.132 2.02712L253.546 0.612903C253.152 0.218017 252.646 6.19888e-06 252.079 6.19888e-06V2.00001ZM252.132 2.02712C252.145 2.03984 252.152 2.04864 252.155 2.05303C252.158 2.05727 252.158 2.05881 252.158 2.05806C252.158 2.05623 252.157 2.05728 252.158 2.05806C252.158 2.06004 252.159 2.06755 252.159 2.08001H254.159C254.159 1.51312 253.941 1.00779 253.546 0.612903L252.132 2.02712ZM252.159 2.08001V8.52001H254.159V2.08001H252.159ZM252.159 8.52001C252.159 8.53246 252.158 8.53902 252.158 8.541C252.157 8.54179 252.158 8.54283 252.158 8.541C252.158 8.54026 252.158 8.54275 252.155 8.54698C252.152 8.55138 252.145 8.56019 252.132 8.5729L253.546 9.98712C253.941 9.59224 254.159 9.0869 254.159 8.52001H252.159ZM252.132 8.5729C252.12 8.58561 252.111 8.59226 252.106 8.59528C252.102 8.59818 252.101 8.59869 252.101 8.59837C252.102 8.59804 252.102 8.59816 252.1 8.59852C252.098 8.59891 252.092 8.60001 252.079 8.60001V10.6C252.646 10.6 253.152 10.382 253.546 9.98712L252.132 8.5729ZM252.079 8.60001H245.439V10.6H252.079V8.60001ZM244.439 9.60001V27.92H246.439V9.60001H244.439ZM244.439 27.92C244.439 27.9325 244.438 27.939 244.438 27.941C244.437 27.9418 244.438 27.9428 244.438 27.941C244.438 27.9403 244.438 27.9427 244.435 27.947C244.432 27.9514 244.425 27.9602 244.412 27.9729L245.826 29.3871C246.221 28.9922 246.439 28.4869 246.439 27.92H244.439ZM244.412 27.9729C244.4 27.9856 244.391 27.9923 244.386 27.9953C244.382 27.9982 244.381 27.9987 244.381 27.9984C244.383 27.9981 244.382 27.998 244.381 27.9984C244.379 27.9988 244.372 28 244.359 28V30C244.926 30 245.432 29.782 245.826 29.3871L244.412 27.9729ZM244.359 28H236.359V30H244.359V28ZM236.359 28C236.347 28 236.34 27.9989 236.338 27.9985C236.338 27.9981 236.337 27.9982 236.338 27.9985C236.339 27.9988 236.337 27.9982 236.332 27.9953C236.328 27.9923 236.319 27.9856 236.306 27.9729L234.892 29.3871C235.287 29.782 235.792 30 236.359 30V28ZM236.306 27.9729C236.294 27.9602 236.287 27.9514 236.284 27.947C236.281 27.9427 236.281 27.9412 236.281 27.9419C236.281 27.9437 236.281 27.9427 236.281 27.9419C236.28 27.9399 236.279 27.9325 236.279 27.92H234.279C234.279 28.4869 234.497 28.9922 234.892 29.3871L236.306 27.9729ZM236.279 27.92V9.60001H234.279V27.92H236.279ZM235.279 8.60001H228.639V10.6H235.279V8.60001ZM228.639 8.60001C228.627 8.60001 228.62 8.59891 228.618 8.59852C228.617 8.59816 228.617 8.59804 228.617 8.59837C228.618 8.59869 228.617 8.59818 228.612 8.59528C228.608 8.59226 228.599 8.58562 228.586 8.5729L227.172 9.98711C227.567 10.382 228.072 10.6 228.639 10.6V8.60001ZM228.586 8.5729C228.574 8.56019 228.567 8.55138 228.564 8.54698C228.561 8.54275 228.561 8.54121 228.561 8.54195C228.561 8.54377 228.561 8.54274 228.561 8.54195C228.56 8.53996 228.559 8.53246 228.559 8.52001H226.559C226.559 9.0869 226.777 9.59223 227.172 9.98711L228.586 8.5729ZM228.559 8.52001V2.08001H226.559V8.52001H228.559ZM228.559 2.08001C228.559 2.06755 228.56 2.061 228.561 2.05902C228.561 2.05823 228.561 2.05719 228.561 2.05902C228.561 2.05976 228.561 2.05727 228.564 2.05304C228.567 2.04864 228.574 2.03983 228.586 2.02711L227.172 0.612901C226.777 1.00779 226.559 1.51311 226.559 2.08001H228.559ZM228.586 2.02711C228.599 2.0144 228.608 2.00775 228.612 2.00474C228.617 2.00183 228.618 2.00133 228.617 2.00164C228.617 2.00197 228.617 2.00186 228.618 2.0015C228.62 2.00111 228.627 2.00001 228.639 2.00001V6.19888e-06C228.072 6.19888e-06 227.567 0.218015 227.172 0.612901L228.586 2.02711ZM264.527 16.12L264.369 15.1325L264.356 15.1347L264.527 16.12ZM268.767 15.44L268.926 16.4274L269.767 16.2924V15.44H268.767ZM268.567 13.84L267.657 14.2538L267.664 14.2707L267.673 14.2872L268.567 13.84ZM257.727 12L256.885 11.4609L256.879 11.47L257.727 12ZM259.527 10.04L258.902 9.25914L258.896 9.26432L258.89 9.26961L259.527 10.04ZM262.847 8.44001L262.563 7.4812L262.558 7.48268L262.847 8.44001ZM275.687 10.04L276.329 9.27273H276.328L275.687 10.04ZM269.207 26.8H270.207V23.7104L268.397 26.2141L269.207 26.8ZM257.927 27.6L257.279 28.3612L257.286 28.3677L257.294 28.374L257.927 27.6ZM268.887 20.36H269.887V19.1157L268.672 19.3834L268.887 20.36ZM266.527 20.88L266.312 19.9034L266.306 19.9049L266.527 20.88ZM256.767 23.04C256.767 21.5577 257.348 20.3658 258.577 19.3947C259.851 18.3883 261.855 17.5987 264.698 17.1053L264.356 15.1347C261.36 15.6547 258.983 16.5251 257.337 17.8253C255.647 19.1609 254.767 20.9223 254.767 23.04H256.767ZM264.686 17.1074L268.926 16.4274L268.609 14.4526L264.369 15.1325L264.686 17.1074ZM269.767 15.44C269.767 15.0165 269.75 14.6384 269.709 14.316C269.671 14.012 269.604 13.6783 269.462 13.3928L267.673 14.2872C267.663 14.2683 267.696 14.3347 267.725 14.564C267.751 14.7749 267.767 15.0635 267.767 15.44H269.767ZM269.478 13.4262C269.099 12.5938 268.256 12.4 267.607 12.4V14.4C267.687 14.4 267.742 14.4059 267.777 14.4121C267.813 14.4184 267.821 14.4238 267.811 14.4191C267.799 14.4137 267.77 14.3979 267.736 14.3651C267.701 14.3313 267.674 14.2919 267.657 14.2538L269.478 13.4262ZM267.607 12.4C266.81 12.4 266.103 12.759 265.503 13.2926L266.832 14.7874C267.191 14.4677 267.445 14.4 267.607 14.4V12.4ZM265.503 13.2926C265.116 13.6363 264.891 13.68 264.807 13.68V15.68C265.577 15.68 266.258 15.297 266.832 14.7874L265.503 13.2926ZM264.807 13.68H258.007V15.68H264.807V13.68ZM258.007 13.68C257.937 13.68 257.915 13.6713 257.925 13.6746C257.94 13.6793 257.987 13.698 258.038 13.7466C258.09 13.7963 258.116 13.8481 258.126 13.8778C258.135 13.9022 258.127 13.8955 258.127 13.84H256.127C256.127 14.2863 256.246 14.8017 256.657 15.1934C257.058 15.5767 257.571 15.68 258.007 15.68V13.68ZM258.127 13.84C258.127 13.4874 258.246 13.0559 258.575 12.53L256.879 11.47C256.408 12.2241 256.127 13.0192 256.127 13.84H258.127ZM258.569 12.5391C258.928 11.9794 259.451 11.4012 260.165 10.8104L258.89 9.26961C258.057 9.95882 257.38 10.6873 256.885 11.4609L258.569 12.5391ZM260.152 10.8209C260.819 10.2875 261.796 9.80206 263.136 9.39734L262.558 7.48268C261.072 7.9313 259.836 8.51254 258.902 9.25914L260.152 10.8209ZM263.131 9.39881C264.465 9.00368 265.967 8.80001 267.647 8.80001V6.80001C265.807 6.80001 264.11 7.02299 262.563 7.4812L263.131 9.39881ZM267.647 8.80001C271.106 8.80001 273.513 9.52641 275.046 10.8073L276.328 9.27273C274.288 7.56694 271.335 6.80001 267.647 6.80001V8.80001ZM275.046 10.8073C276.561 12.0739 277.367 13.9004 277.367 16.44H279.367C279.367 13.4329 278.386 10.9928 276.329 9.27273L275.046 10.8073ZM277.367 16.44V27.92H279.367V16.44H277.367ZM277.367 27.92C277.367 27.9325 277.366 27.939 277.366 27.941C277.365 27.9418 277.365 27.9428 277.366 27.941C277.366 27.9403 277.365 27.9427 277.362 27.947C277.359 27.9514 277.353 27.9602 277.34 27.9729L278.754 29.3871C279.149 28.9922 279.367 28.4869 279.367 27.92H277.367ZM277.34 27.9729C277.327 27.9856 277.319 27.9923 277.314 27.9953C277.31 27.9982 277.308 27.9987 277.309 27.9984C277.311 27.9981 277.31 27.998 277.309 27.9984C277.307 27.9988 277.3 28 277.287 28V30C277.854 30 278.359 29.782 278.754 29.3871L277.34 27.9729ZM277.287 28H270.287V30H277.287V28ZM270.287 28C270.275 28 270.268 27.9989 270.266 27.9985C270.265 27.9981 270.264 27.9982 270.266 27.9985C270.267 27.9988 270.264 27.9982 270.26 27.9953C270.256 27.9923 270.247 27.9856 270.234 27.9729L268.82 29.3871C269.215 29.782 269.72 30 270.287 30V28ZM270.234 27.9729C270.222 27.9602 270.215 27.9514 270.212 27.947C270.209 27.9427 270.209 27.9412 270.209 27.9419C270.209 27.9437 270.209 27.9427 270.209 27.9419C270.208 27.9399 270.207 27.9325 270.207 27.92H268.207C268.207 28.4869 268.425 28.9922 268.82 29.3871L270.234 27.9729ZM270.207 27.92V26.8H268.207V27.92H270.207ZM268.397 26.2141C267.357 27.6527 265.852 28.4 263.727 28.4V30.4C266.403 30.4 268.551 29.4139 270.018 27.3859L268.397 26.2141ZM263.727 28.4C261.495 28.4 259.805 27.8445 258.56 26.826L257.294 28.374C258.983 29.7555 261.159 30.4 263.727 30.4V28.4ZM258.576 26.8388C257.348 25.7927 256.767 24.5462 256.767 23.04H254.767C254.767 25.1605 255.627 26.954 257.279 28.3612L258.576 26.8388ZM266.287 24.48C267.361 24.48 268.331 24.1492 269.005 23.3402C269.65 22.5661 269.887 21.5142 269.887 20.36H267.887C267.887 21.2858 267.691 21.7939 267.469 22.0598C267.276 22.2908 266.947 22.48 266.287 22.48V24.48ZM268.672 19.3834L266.312 19.9034L266.742 21.8566L269.102 21.3366L268.672 19.3834ZM266.306 19.9049C265.643 20.0554 265.029 20.2933 264.564 20.6846C264.061 21.1073 263.767 21.6837 263.767 22.36H265.767C265.767 22.3163 265.767 22.286 265.851 22.2154C265.972 22.1134 266.238 21.9713 266.749 21.8551L266.306 19.9049ZM263.767 22.36C263.767 23.0065 264.057 23.5524 264.542 23.9409L265.792 22.3791C265.773 22.3639 265.764 22.3537 265.76 22.3498C265.757 22.3462 265.759 22.3473 265.762 22.3528C265.764 22.3585 265.766 22.3643 265.767 22.3684C265.768 22.3722 265.767 22.3702 265.767 22.36H263.767ZM264.542 23.9409C265.046 24.3438 265.671 24.48 266.287 24.48V22.48C265.944 22.48 265.822 22.4029 265.792 22.3791L264.542 23.9409ZM290.388 28H283.228V30H290.388V28ZM283.228 28C283.216 28 283.209 27.9989 283.207 27.9985C283.206 27.9982 283.206 27.998 283.206 27.9984C283.207 27.9987 283.206 27.9982 283.201 27.9953C283.197 27.9923 283.188 27.9856 283.176 27.9729L281.761 29.3871C282.156 29.782 282.662 30 283.228 30V28ZM283.176 27.9729C283.163 27.9602 283.156 27.9514 283.153 27.947C283.15 27.9427 283.15 27.9412 283.15 27.9419C283.15 27.9437 283.15 27.9427 283.15 27.9419C283.15 27.9399 283.148 27.9325 283.148 27.92H281.148C281.148 28.4869 281.366 28.9922 281.761 29.3871L283.176 27.9729ZM283.148 27.92V1.68001H281.148V27.92H283.148ZM283.148 1.68001C283.148 1.66755 283.15 1.661 283.15 1.65902C283.15 1.65823 283.15 1.65719 283.15 1.65902C283.15 1.65976 283.15 1.65727 283.153 1.65304C283.156 1.64864 283.163 1.63983 283.176 1.62712L281.761 0.212901C281.366 0.607786 281.148 1.11311 281.148 1.68001H283.148ZM283.176 1.62712C283.188 1.6144 283.197 1.60775 283.201 1.60474C283.206 1.60183 283.207 1.60133 283.206 1.60164C283.206 1.60197 283.206 1.60186 283.207 1.6015C283.209 1.60111 283.216 1.60001 283.228 1.60001V-0.399994C282.662 -0.399994 282.156 -0.181985 281.761 0.212901L283.176 1.62712ZM283.228 1.60001H290.388V-0.399994H283.228V1.60001ZM290.388 1.60001C290.401 1.60001 290.407 1.60111 290.409 1.6015C290.411 1.60186 290.411 1.60197 290.41 1.60164C290.41 1.60133 290.411 1.60183 290.415 1.60474C290.42 1.60775 290.429 1.6144 290.441 1.62711L291.856 0.212902C291.461 -0.181985 290.955 -0.399994 290.388 -0.399994V1.60001ZM290.441 1.62711C290.454 1.63982 290.461 1.64864 290.464 1.65304C290.467 1.65727 290.467 1.65881 290.467 1.65807C290.467 1.65624 290.466 1.65728 290.467 1.65807C290.467 1.66005 290.468 1.66755 290.468 1.68001H292.468C292.468 1.11311 292.25 0.607787 291.856 0.212902L290.441 1.62711ZM290.468 1.68001V27.92H292.468V1.68001H290.468ZM290.468 27.92C290.468 27.9325 290.467 27.939 290.467 27.941C290.466 27.9418 290.467 27.9428 290.467 27.941C290.467 27.9403 290.467 27.9427 290.464 27.947C290.461 27.9514 290.454 27.9602 290.441 27.9729L291.856 29.3871C292.25 28.9922 292.468 28.4869 292.468 27.92H290.468ZM290.441 27.9729C290.429 27.9856 290.42 27.9923 290.415 27.9953C290.411 27.9982 290.41 27.9987 290.41 27.9984C290.411 27.998 290.411 27.9982 290.409 27.9985C290.407 27.9989 290.401 28 290.388 28V30C290.955 30 291.461 29.782 291.856 29.3871L290.441 27.9729ZM304.669 20.96V19.96H303.669V20.96H304.669ZM314.189 27.28L313.606 26.467L313.601 26.4708L314.189 27.28ZM298.029 26.8L297.388 27.5675L297.398 27.5761L298.029 26.8ZM298.109 10.56L298.752 11.3259L298.757 11.3212L298.109 10.56ZM314.749 10.88L314.018 11.563L314.023 11.568L314.749 10.88ZM304.669 15.96H303.669V16.96H304.669V15.96ZM307.869 15.96V16.96H308.869V15.96H307.869ZM316.589 19.96H304.669V21.96H316.589V19.96ZM303.669 20.96V21.16H305.669V20.96H303.669ZM303.669 21.16C303.669 22.0477 303.805 22.8852 304.216 23.5287C304.676 24.2484 305.399 24.6 306.229 24.6V22.6C306.1 22.6 306.037 22.5756 306.009 22.5608C305.983 22.5476 305.947 22.5222 305.901 22.4513C305.793 22.2815 305.669 21.8989 305.669 21.16H303.669ZM306.229 24.6C306.615 24.6 306.956 24.4615 307.229 24.3003C307.504 24.1368 307.767 23.9159 308.016 23.6671L306.602 22.2529C306.424 22.4307 306.293 22.5298 306.209 22.5797C306.121 22.6318 306.135 22.6 306.229 22.6V24.6ZM308.016 23.6671C308.293 23.3896 308.517 23.32 308.709 23.32V21.32C307.887 21.32 307.177 21.6771 306.602 22.2529L308.016 23.6671ZM308.709 23.32H316.269V21.32H308.709V23.32ZM316.269 23.32C316.335 23.32 316.352 23.3286 316.338 23.3237C316.318 23.3171 316.27 23.2959 316.222 23.2471C316.173 23.1983 316.152 23.1509 316.145 23.1312C316.14 23.1164 316.149 23.1337 316.149 23.2H318.149C318.149 22.7525 318.036 22.2332 317.636 21.8329C317.236 21.4325 316.716 21.32 316.269 21.32V23.32ZM316.149 23.2C316.149 23.9898 315.531 25.0886 313.606 26.467L314.771 28.093C316.793 26.6447 318.149 25.0235 318.149 23.2H316.149ZM313.601 26.4708C311.881 27.7196 309.459 28.4 306.229 28.4V30.4C309.718 30.4 312.603 29.6671 314.776 28.0892L313.601 26.4708ZM306.229 28.4C303.075 28.4 300.579 27.5834 298.659 26.0239L297.398 27.5761C299.745 29.4832 302.716 30.4 306.229 30.4V28.4ZM298.67 26.0326C296.819 24.4863 295.869 22.3694 295.869 19.56H293.869C293.869 22.8839 295.025 25.5938 297.388 27.5675L298.67 26.0326ZM295.869 19.56V17.64H293.869V19.56H295.869ZM295.869 17.64C295.869 15.0184 296.826 12.9426 298.752 11.3259L297.466 9.79412C295.072 11.804 293.869 14.4482 293.869 17.64H295.869ZM298.757 11.3212C300.697 9.66867 303.276 8.80001 306.589 8.80001V6.80001C302.915 6.80001 299.84 7.77135 297.46 9.79877L298.757 11.3212ZM306.589 8.80001C309.906 8.80001 312.333 9.76054 314.018 11.563L315.479 10.197C313.325 7.89281 310.311 6.80001 306.589 6.80001V8.80001ZM314.023 11.568C315.773 13.4141 316.669 15.7581 316.669 18.68H318.669C318.669 15.3085 317.618 12.4526 315.474 10.192L314.023 11.568ZM316.669 18.68V19.88H318.669V18.68H316.669ZM316.669 19.88C316.669 19.8925 316.668 19.899 316.667 19.901C316.667 19.9018 316.667 19.9028 316.667 19.901C316.667 19.9003 316.667 19.9027 316.664 19.907C316.661 19.9114 316.654 19.9202 316.642 19.9329L318.056 21.3471C318.451 20.9522 318.669 20.4469 318.669 19.88H316.669ZM316.642 19.9329C316.629 19.9456 316.62 19.9523 316.616 19.9553C316.611 19.9582 316.61 19.9587 316.611 19.9584C316.611 19.958 316.612 19.9582 316.61 19.9585C316.608 19.9589 316.601 19.96 316.589 19.96V21.96C317.156 21.96 317.661 21.742 318.056 21.3471L316.642 19.9329ZM308.869 15.8C308.869 14.9205 308.728 14.0859 308.301 13.4453C307.826 12.7331 307.093 12.4 306.269 12.4V14.4C306.511 14.4 306.578 14.4669 306.637 14.5547C306.743 14.7141 306.869 15.0795 306.869 15.8H308.869ZM306.269 12.4C305.444 12.4 304.712 12.7331 304.237 13.4453C303.81 14.0859 303.669 14.9205 303.669 15.8H305.669C305.669 15.0795 305.795 14.7141 305.901 14.5547C305.959 14.4669 306.027 14.4 306.269 14.4V12.4ZM303.669 15.8V15.96H305.669V15.8H303.669ZM304.669 16.96H307.869V14.96H304.669V16.96ZM308.869 15.96V15.8H306.869V15.96H308.869ZM331.935 22.6L331.159 23.2306L331.166 23.2402L331.935 22.6ZM328.095 21.36L327.905 22.342L327.917 22.3441L328.095 21.36ZM322.695 19.16L322.078 19.9469L322.086 19.9535L322.095 19.96L322.695 19.16ZM340.975 14.36L340.222 13.7015L340.197 13.7299L340.175 13.76L340.975 14.36ZM330.135 14.68L329.366 15.3202L329.373 15.3276L329.379 15.3349L330.135 14.68ZM340.215 18.32L339.5 19.0196L339.508 19.0271L339.515 19.0345L340.215 18.32ZM322.535 27.2L323.172 26.4296L323.171 26.4285L322.535 27.2ZM329.615 23.24L329.027 24.0487L329.047 24.0637L329.068 24.0776L329.615 23.24ZM333.135 23.24C333.135 22.8063 333.024 22.345 332.703 21.9598L331.166 23.2402C331.156 23.2273 331.147 23.2142 331.141 23.2022C331.134 23.1904 331.131 23.1818 331.13 23.1783C331.128 23.1719 331.135 23.1889 331.135 23.24H333.135ZM332.711 21.9694C332.498 21.7077 332.213 21.5256 331.959 21.394C331.69 21.2551 331.372 21.1315 331.022 21.0184C330.321 20.792 329.398 20.5794 328.273 20.3759L327.917 22.3441C329.005 22.5406 329.828 22.7347 330.407 22.9216C330.697 23.0152 330.903 23.0999 331.041 23.171C331.193 23.2494 331.198 23.279 331.159 23.2306L332.711 21.9694ZM328.284 20.3781C326.177 19.9718 324.529 19.2859 323.295 18.36L322.095 19.96C323.633 21.1141 325.586 21.8949 327.905 22.342L328.284 20.3781ZM323.312 18.3731C322.219 17.5159 321.655 16.3398 321.655 14.72H319.655C319.655 16.8869 320.451 18.6708 322.078 19.9469L323.312 18.3731ZM321.655 14.72C321.655 13.2052 322.357 11.853 323.975 10.64L322.775 9.04001C320.765 10.547 319.655 12.4481 319.655 14.72H321.655ZM323.975 10.64C325.563 9.44879 327.769 8.80001 330.695 8.80001V6.80001C327.487 6.80001 324.813 7.51123 322.775 9.04001L323.975 10.64ZM330.695 8.80001C333.655 8.80001 335.983 9.41246 337.75 10.559L338.839 8.88105C336.66 7.46756 333.921 6.80001 330.695 6.80001V8.80001ZM337.75 10.559C339.663 11.7992 340.255 12.8319 340.255 13.6H342.255C342.255 11.7548 340.873 10.2008 338.839 8.88105L337.75 10.559ZM340.255 13.6C340.255 13.6603 340.243 13.6773 340.222 13.7015L341.727 15.0185C342.079 14.616 342.255 14.1263 342.255 13.6H340.255ZM340.175 13.76C340.167 13.7701 340.184 13.7443 340.234 13.7176C340.287 13.6892 340.341 13.68 340.375 13.68V15.68C340.968 15.68 341.45 15.3929 341.775 14.96L340.175 13.76ZM340.375 13.68H333.655V15.68H340.375V13.68ZM333.655 13.68C333.578 13.68 333.3 13.622 332.763 13.2313L331.587 14.8487C332.223 15.3114 332.931 15.68 333.655 15.68V13.68ZM332.763 13.2313C332.442 12.9981 332.133 12.8018 331.841 12.6602C331.564 12.5261 331.221 12.4 330.855 12.4V14.4C330.782 14.4 330.805 14.3806 330.968 14.4598C331.116 14.5316 331.32 14.6552 331.587 14.8487L332.763 13.2313ZM330.855 12.4C330.463 12.4 329.991 12.4626 329.594 12.7391C329.13 13.0615 328.935 13.5532 328.935 14.04H330.935C330.935 14.053 330.932 14.1127 330.894 14.1921C330.854 14.2765 330.793 14.3409 330.736 14.3809C330.685 14.4165 330.655 14.4194 330.678 14.4142C330.701 14.4089 330.756 14.4 330.855 14.4V12.4ZM328.935 14.04C328.935 14.4737 329.045 14.935 329.366 15.3202L330.903 14.0398C330.914 14.0527 330.922 14.0658 330.929 14.0778C330.935 14.0896 330.938 14.0982 330.939 14.1017C330.941 14.1081 330.935 14.0911 330.935 14.04H328.935ZM329.379 15.3349C329.615 15.6068 329.938 15.7784 330.202 15.8938C330.491 16.0201 330.838 16.1328 331.228 16.2364C332.008 16.4441 333.055 16.6407 334.35 16.8295L334.639 14.8505C333.374 14.666 332.414 14.4825 331.742 14.3036C331.405 14.2139 331.164 14.1316 331.003 14.0612C330.817 13.9799 330.828 13.9532 330.89 14.0251L329.379 15.3349ZM334.35 16.8295C336.787 17.1848 338.455 17.9521 339.5 19.0196L340.929 17.6204C339.468 16.1279 337.323 15.2418 334.639 14.8505L334.35 16.8295ZM339.515 19.0345C340.636 20.1321 341.135 21.2851 341.135 22.52H343.135C343.135 20.6615 342.353 19.0146 340.914 17.6055L339.515 19.0345ZM341.135 22.52C341.135 24.3104 340.36 25.696 338.682 26.754L339.748 28.446C341.962 27.0506 343.135 25.0496 343.135 22.52H341.135ZM338.682 26.754C336.96 27.8388 334.415 28.44 330.935 28.44V30.44C334.601 30.44 337.576 29.8145 339.748 28.446L338.682 26.754ZM330.935 28.44C329.114 28.44 327.531 28.2346 326.174 27.8398L325.615 29.7602C327.191 30.2187 328.968 30.44 330.935 30.44V28.44ZM326.174 27.8398C324.777 27.4333 323.8 26.9492 323.172 26.4296L321.897 27.9704C322.816 28.7308 324.079 29.3133 325.615 29.7602L326.174 27.8398ZM323.171 26.4285C321.707 25.2218 321.255 24.3057 321.255 23.68H319.255C319.255 25.241 320.322 26.6715 321.899 27.9715L323.171 26.4285ZM321.255 23.68C321.255 23.6197 321.266 23.6027 321.287 23.5785L319.782 22.2615C319.43 22.6639 319.255 23.1537 319.255 23.68H321.255ZM321.287 23.5785C321.302 23.562 321.297 23.5722 321.27 23.5848C321.258 23.5906 321.245 23.5949 321.234 23.5974C321.222 23.5999 321.215 23.6 321.215 23.6V21.6C320.64 21.6 320.145 21.8467 319.782 22.2615L321.287 23.5785ZM321.215 23.6H328.175V21.6H321.215V23.6ZM328.175 23.6C328.173 23.6 328.191 23.5999 328.232 23.6101C328.273 23.6204 328.332 23.6396 328.409 23.6738C328.565 23.7435 328.77 23.8623 329.027 24.0487L330.203 22.4313C329.582 21.9794 328.881 21.6 328.175 21.6V23.6ZM329.068 24.0776C329.786 24.5453 330.548 24.84 331.335 24.84V22.84C331.055 22.84 330.67 22.7347 330.161 22.4024L329.068 24.0776ZM331.335 24.84C331.698 24.84 332.152 24.777 332.535 24.49C332.972 24.1624 333.135 23.684 333.135 23.24H331.135C331.135 23.23 331.136 23.174 331.171 23.0964C331.208 23.013 331.267 22.9407 331.335 22.89C331.366 22.8668 331.393 22.8523 331.412 22.8437C331.431 22.8352 331.442 22.8325 331.442 22.8324C331.442 22.8323 331.434 22.8343 331.416 22.8363C331.397 22.8383 331.37 22.84 331.335 22.84V24.84Z" fill="#7C6A8F"/>
</g>
<defs>
<linearGradient id="paint0_linear_720_25" x1="167" y1="6.50001" x2="167" y2="57" gradientUnits="userSpaceOnUse">
<stop stop-color="white"/>
<stop offset="1" stop-color="#E1E2E2"/>
</linearGradient>
<clipPath id="clip0_720_25">
<rect width="343" height="30" fill="white"/>
</clipPath>
</defs>
</svg>
